<svg xmlns="http://www.w3.org/2000/svg" viewBox="0 0 676.32 1861.02"><defs><style>.cls-1{fill:#66382a;}.cls-1,.cls-11,.cls-13,.cls-17,.cls-18,.cls-19,.cls-21,.cls-23,.cls-26,.cls-4,.cls-5,.cls-7,.cls-8{stroke:#1d1d1b;stroke-miterlimit:10;}.cls-2,.cls-3{fill:#18090b;}.cls-2{opacity:0.71;}.cls-4{fill:#321d15;}.cls-5{fill:#8da3c9;}.cls-11,.cls-13,.cls-19,.cls-5,.cls-7,.cls-8{stroke-width:2px;}.cls-6{fill:#6580a3;}.cls-17,.cls-18,.cls-7{fill:none;}.cls-8{fill:#edb489;}.cls-9{fill:#bf8266;opacity:0.24;}.cls-10{fill:#090708;}.cls-11{fill:#c2e0f3;}.cls-12{fill:#6a81a1;}.cls-13{fill:#274872;}.cls-14{fill:#172b48;}.cls-15{fill:#6780a1;}.cls-16{fill:#637ea1;}.cls-17{stroke-width:2.63px;}.cls-18{stroke-width:2.73px;}.cls-19{fill:#516381;}.cls-20{fill:#242837;}.cls-21{fill:#ecb58c;}.cls-21,.cls-23{stroke-width:0.71px;}.cls-22{fill:#cc8566;}.cls-23,.cls-26{fill:#eeb58e;}.cls-24{fill:#c97d60;}.cls-25{fill:#1d1d1b;}.cls-26{stroke-width:0.81px;}.cls-27{fill:#efb78b;}.cls-28{fill:#cd8262;}.cls-29{fill:#d18f75;}.cls-30{fill:#d08a6f;}.cls-31{fill:#030304;}.cls-32{fill:#020304;}.cls-33{fill:#040506;}.cls-34{fill:#6397ce;}.cls-35{fill:#93bbe0;}.cls-36{fill:#030405;}.cls-37{fill:#d67c6a;opacity:0.68;}.cls-38{fill:#f8f9f4;}.cls-39{fill:#cd7b62;}</style></defs><g id="Layer_2" data-name="Layer 2"><g id="ELMACHHOUNE"><g id="sbat"><g id="ssbat"><g id="right_lferda" data-name="right lferda"><path id="right_ferda" data-name="right ferda" class="cls-1" d="M413.63,1743.8q0,15.57,0,31.28,0,13.61-.15,27.11a71.56,71.56,0,0,0,14.75,10.5c5,2.64,10.55,5.64,18.5,6.5a41.86,41.86,0,0,0,15.5-1.25,56.7,56.7,0,0,0,11.75,18.5c12.73,13.22,28.66,16.07,49.25,19.75,11.45,2,25.65,4.46,44.25,1.75a120.66,120.66,0,0,0,34-10.25q-.12-6.37-.25-12.75l-2.5-.25c-1.76-13-6.41-21.09-10.25-26-6.37-8.15-11.89-9.41-24-20.75-5.43-5.09-8.79-9.06-15.5-17a386.8,386.8,0,0,1-27.75-37.25,53.86,53.86,0,0,0-22.25-7c-11.63-.93-20.89,2.38-31,6-12.63,4.52-13.56,7.06-22.5,9.75C437.23,1744.92,426.73,1746.16,413.63,1743.8Z"/><path class="cls-2" d="M519.9,1758.46c-.42-.53-2.57-3.6-3-4.09-.79-1.49-7.07-14.3-10.93-23.7a2.06,2.06,0,0,0,.19-2.71,2,2,0,0,0-2.16-.57c-.86-.19-1.76-.36-2.7-.5a43.23,43.23,0,0,0-10.28-.31c-2.87.38-4.76.73-5.81.94-.41.08-.7.15-1.29.29-2.26.53-3.38.8-3.41,1.14s5.25,5,6.19,6.16a25.22,25.22,0,0,0,2.75,3c.27.24,6.51,8.05,6.77,8.52,1.63,2.92,8.44,13.07,9,16.41.11.64.06,2.3.65,2.1,3.65-1.23,8.67-1.3,12.44-1.92,1.6-.26,2.37.18,3.69-.83S520.84,1759.66,519.9,1758.46Z"/><path class="cls-3" d="M441.53,1789.64a19.1,19.1,0,0,1,8.37-9.63c4.23-2.22,8.59-1.4,12.49,1.08,3.53,2.24,6.59,5.17,10.2,7.3a16.94,16.94,0,0,0,11.57,2.23,26.2,26.2,0,0,0,19.23-14.2,22.18,22.18,0,0,0,2.3-12.19,36.46,36.46,0,0,0-4.35-12.84c-5-9.07-12.84-16.14-20.62-22.76-1.22-1-3,.72-1.77,1.77,6.78,5.77,13.61,11.81,18.49,19.34a38.18,38.18,0,0,1,5.33,12.3,19.84,19.84,0,0,1-1.25,12.5,23.7,23.7,0,0,1-18.7,13.74c-4.21.44-7.68-1-11.08-3.42s-6.54-5.3-10.29-7.21a14,14,0,0,0-13.57.62,22.33,22.33,0,0,0-8.77,10.71c-.62,1.48,1.8,2.12,2.42.66Z"/><path id="soumila" class="cls-4" d="M601.53,1834.93l-1.15-.08-1.11-.07a65.57,65.57,0,0,1-12.34,5.73,70.31,70.31,0,0,1-11.42,2.76,133.79,133.79,0,0,1-25.8,1.67,231.7,231.7,0,0,1-44-5.81c-10.25-2.32-18.49-4.87-24.61-11a68.93,68.93,0,0,1-5.81-6.88c-4.15-5.72-4-7.6-7.37-12.81a43.12,43.12,0,0,0-12-12.75,37.31,37.31,0,0,0-11.5-5c-7.08-2-17.33-6.73-30.75-18.75q-.12,15.12-.25,30.25a61.9,61.9,0,0,0,4.88,4.32,69.55,69.55,0,0,0,6.37,4.43c8,4.82,19.5,7.81,20.78,8.13l0-17.88a11.81,11.81,0,0,1,6,.34c4,1.33,6,4.58,7.8,7.41a26.72,26.72,0,0,1,3.67,9.67,53.72,53.72,0,0,0,12,18.69c11.83,11.8,26.4,14.57,49.3,18.91a145.13,145.13,0,0,0,26.49,2.64,102.58,102.58,0,0,0,18.34-1.37c1.38-.24,4.11-.75,8.87-2a198.9,198.9,0,0,0,23.55-7.8C602.37,1837.65,602.08,1835,601.53,1834.93Z"/><path class="cls-3" d="M510.75,1818.75c6-5.58,12.82-10.69,20.44-13.88a42.08,42.08,0,0,1,10.44-2.56,89.58,89.58,0,0,1,11-.85c4.41-.06,8.82.21,13.22.34,2.42.07,2.41-3.68,0-3.75-8-.24-15.8-.58-23.74.45a47.21,47.21,0,0,0-10.91,2.36,59.86,59.86,0,0,0-11.51,6,92.32,92.32,0,0,0-11.57,9.2c-1.78,1.64.88,4.29,2.65,2.65Z"/><path class="cls-3" d="M491.29,1768.09c12.53-6.52,27-7.22,40.83-6,1.61.15,1.6-2.35,0-2.5-14.27-1.28-29.16-.4-42.09,6.32-1.43.74-.17,2.9,1.26,2.16Z"/><path class="cls-3" d="M486.4,1756.7c12.53-6.51,27-7.22,40.83-6,1.6.14,1.59-2.36,0-2.5-14.27-1.29-29.17-.41-42.09,6.31-1.43.74-.17,2.9,1.26,2.16Z"/><path class="cls-3" d="M479,1745.46c12.53-6.51,27-7.21,40.84-6,1.6.14,1.59-2.36,0-2.5-14.27-1.28-29.17-.41-42.1,6.32-1.43.74-.16,2.9,1.26,2.15Z"/><path class="cls-3" d="M504.62,1728.72a26.05,26.05,0,0,0,1.2,4.85c.8,2.52,1.71,5,2.67,7.48,2,5.12,4.13,10.46,7.22,15A81.37,81.37,0,0,0,527,1768.88a14.91,14.91,0,0,0,4.76,3.3,35.41,35.41,0,0,0,6.72,1.86c2.58.5,5.19.86,7.8,1.1a19.59,19.59,0,0,0,4.59.12c1.59-.24.91-2.65-.66-2.41.5-.07-.09,0-.21,0h-.78c-.83,0-1.65-.08-2.48-.15q-3.16-.27-6.3-.81c-3.78-.65-8-1.36-10.93-4.06a87.63,87.63,0,0,1-10.71-11.74c-3-4.13-5.14-9-7.07-13.74-1.11-2.72-2.14-5.47-3.07-8.25a34.27,34.27,0,0,1-1.49-5.36c-.18-1.58-2.68-1.59-2.5,0Z"/></g><g id="left_lferda" data-name="left lferda"><path id="right_ferda-2" data-name="right ferda" class="cls-1" d="M261.37,1745.18q0,15.57,0,31.28,0,13.61.15,27.11a71.68,71.68,0,0,1-14.75,10.5c-4.94,2.63-10.55,5.63-18.5,6.5a42.29,42.29,0,0,1-15.5-1.25,56.7,56.7,0,0,1-11.75,18.5c-12.72,13.22-28.66,16.07-49.25,19.75-11.45,2-25.64,4.45-44.25,1.75a121,121,0,0,1-34-10.25q.12-6.37.25-12.75l2.5-.25c1.76-13,6.41-21.1,10.25-26,6.37-8.16,11.89-9.41,24-20.75,5.43-5.09,8.79-9.06,15.5-17a386.8,386.8,0,0,0,27.75-37.25,53.86,53.86,0,0,1,22.25-7c11.63-.94,20.89,2.38,31,6,12.63,4.52,13.56,7.06,22.5,9.75C237.77,1746.29,248.27,1747.53,261.37,1745.18Z"/><path class="cls-2" d="M155.11,1759.83c.41-.53,2.56-3.59,3-4.09.78-1.49,7.07-14.29,10.93-23.69a2.06,2.06,0,0,1-.2-2.71,2,2,0,0,1,2.16-.58c.86-.19,1.76-.35,2.7-.49A42.71,42.71,0,0,1,184,1728c2.87.38,4.76.72,5.81.93.41.08.7.15,1.3.29,2.25.53,3.38.8,3.4,1.15s-5.25,5.05-6.19,6.16a26,26,0,0,1-2.75,3c-.27.24-6.51,8-6.77,8.51-1.62,2.92-8.44,13.08-9,16.42-.1.64-.06,2.3-.65,2.1-3.64-1.24-8.67-1.31-12.43-1.92-1.61-.26-2.37.18-3.7-.83S154.16,1761,155.11,1759.83Z"/><path class="cls-3" d="M235.89,1790.35c-3.13-7.48-10.39-14.44-19.12-12.48-8.15,1.83-13,11-21.43,11.84-8,.84-16.31-4.45-20.41-11.08a21,21,0,0,1-3.22-11.78c.16-4.42,2-9,4.11-12.82,4.87-8.88,12.61-15.77,20.23-22.26,1.22-1-.55-2.8-1.77-1.76-6.95,5.91-13.87,12.13-18.87,19.85-4.77,7.34-7.95,16.47-5,25.1a26.32,26.32,0,0,0,17.44,16.39,17.86,17.86,0,0,0,11.92-.27c3.8-1.58,6.89-4.36,10.17-6.78a22.52,22.52,0,0,1,6.56-3.78,11.25,11.25,0,0,1,7.16.23c4.55,1.66,8,5.91,9.8,10.27.61,1.46,3,.82,2.41-.67Z"/><path id="soumila-2" data-name="soumila" class="cls-4" d="M73.48,1836.3l1.14-.07,1.11-.08a64.33,64.33,0,0,0,12.34,5.73,69.29,69.29,0,0,0,11.42,2.77,134.63,134.63,0,0,0,25.8,1.67,231.7,231.7,0,0,0,44-5.81c10.25-2.33,18.5-4.87,24.61-11a67.41,67.41,0,0,0,5.81-6.88c4.15-5.72,4-7.59,7.37-12.8a43.12,43.12,0,0,1,12-12.75,37.05,37.05,0,0,1,11.5-5c7.08-2,17.33-6.73,30.75-18.75q.12,15.12.25,30.25a64,64,0,0,1-4.88,4.32,71.9,71.9,0,0,1-6.37,4.43c-7.95,4.82-19.5,7.8-20.78,8.12l0-17.87a11.79,11.79,0,0,0-5.95.33c-4,1.34-6,4.59-7.8,7.42a26.56,26.56,0,0,0-3.66,9.67,53.72,53.72,0,0,1-12,18.68c-11.83,11.8-26.4,14.57-49.3,18.92a146,146,0,0,1-26.49,2.64,102.23,102.23,0,0,1-18.34-1.38c-1.38-.24-4.11-.75-8.87-2a196.68,196.68,0,0,1-23.55-7.79C72.63,1839,72.92,1836.42,73.48,1836.3Z"/><path class="cls-3" d="M166.9,1817.47c-6.35-5.87-13.47-11.19-21.48-14.58a42.74,42.74,0,0,0-10.86-2.79,98.71,98.71,0,0,0-11.77-1c-4.54-.08-9.08.2-13.62.33-2.41.07-2.42,3.82,0,3.75,7.65-.22,15.19-.58,22.81.34a46.58,46.58,0,0,1,10.25,2.12,52.61,52.61,0,0,1,10.83,5.64,85.23,85.23,0,0,1,11.19,8.86c1.77,1.63,4.43-1,2.65-2.66Z"/><path class="cls-3" d="M185,1767.31c-12.92-6.73-27.82-7.6-42.09-6.32-1.59.14-1.61,2.64,0,2.5,13.81-1.24,28.3-.54,40.83,6,1.43.75,2.69-1.41,1.26-2.15Z"/><path class="cls-3" d="M189.87,1755.92c-12.93-6.73-27.83-7.6-42.1-6.32-1.59.14-1.61,2.65,0,2.5,13.81-1.24,28.31-.54,40.83,6,1.43.74,2.69-1.42,1.27-2.16Z"/><path class="cls-3" d="M197.28,1744.68c-12.93-6.72-27.83-7.6-42.1-6.31-1.59.14-1.6,2.64,0,2.5,13.81-1.25,28.31-.54,40.84,6,1.42.74,2.69-1.42,1.26-2.16Z"/><path class="cls-3" d="M167.88,1730.1c0-.23-.08.45-.11.57-.07.35-.16.7-.25,1-.26,1-.56,2-.87,3-.77,2.4-1.64,4.76-2.55,7.1a75.05,75.05,0,0,1-6.81,14.2,76.66,76.66,0,0,1-10.61,12.15,13.59,13.59,0,0,1-4.13,3.06,31.85,31.85,0,0,1-6.21,1.75A69.77,69.77,0,0,1,129,1774c-.95.09-1.9.17-2.86.21l-1,0c-.14,0-.84-.07-.32,0-1.58-.24-2.26,2.17-.67,2.41a16.56,16.56,0,0,0,3.79-.06q3.39-.27,6.73-.83c4.08-.67,8.94-1.47,12.11-4.34A89.25,89.25,0,0,0,158,1759.22c3.34-4.4,5.57-9.6,7.65-14.69,1.17-2.85,2.25-5.75,3.22-8.68a29.47,29.47,0,0,0,1.49-5.75c.19-1.6-2.32-1.58-2.5,0Z"/></g></g></g><g id="srwal"><g id="Srwal-2" data-name="Srwal"><path id="srwal-3" data-name="srwal" class="cls-5" d="M522.42,1732.43c-20.59-4.81-35.53-2.66-45.4.23-10.94,3.2-15.82,7.34-28.21,10.32a90,90,0,0,1-36.57.92c-2.25-9-5-21.56-7.22-36.69-2.13-14.57-2.94-26-3.67-38.29-2-32.61-2.6-57.94-2.75-63.52-1-37.49-3.29-36.31-6.88-92.18-4-62.83-1.3-65.89-5.51-103.87-3-27.28-4.33-24.72-13.07-78.65-6.61-40.79-8.72-59.88-19.95-133.68-9.35-61.46-11.84-74.25-15.59-74.3-2.62,0-6.24,6.17-20.18,96.54-11.9,77.17-11.35,86.25-20.63,138.27-5.16,28.91-6.91,35-9,53.42-3.94,35.77-.87,44.67-3.21,90.58-1.94,38.18-4.11,32.76-6.42,76.35-1.08,20.43-1,29.6-3.21,75.21-1,20.54-1.58,31-3.21,45a478.93,478.93,0,0,1-8,47.69,73.21,73.21,0,0,1-34.4,0c-14.31-3.62-19.54-10-32.33-14.45-9.64-3.31-24.25-5.69-44.94-.3a252.7,252.7,0,0,1-4.28-44.79c-.19-30.62,5.36-41.67,7.18-72.31.94-15.69-.37-15.26-3.36-67.64-2.06-36.12-3.23-56.6-3.44-79.8-.44-48.15,3.78-50.13,3.9-94.7,0-16.37-.52-18.08-6-97.91-3.64-53.4-5.49-80.67-6.88-108-1.95-38.38-3.31-65-3.44-96.3a1223.74,1223.74,0,0,1,7.57-140.33c57.08,4.41,117.24,7.49,180.22,8.71,75.56,1.47,147.25.11,214.63-3.21-1.71,68.93-2.66,124.74-3.21,162.8-1.06,73-.77,89.39-3,126.8-4.37,73.77-9.25,73.74-10.32,127.27-1.21,60.7,5.07,61.3,2.9,127.64-2.7,83-3.21,91.41-3.21,91.41-.56,9.48-1.48,23.46-.91,42.65.65,21.84,2.71,33,4,47.85A323,323,0,0,1,522.42,1732.43Z"/><g id="shadow"><path class="cls-6" d="M238.06,1692.73a2.51,2.51,0,0,0,1.37-1.58,2.18,2.18,0,0,0-.53-1.57A104.4,104.4,0,0,0,206.67,1662c-24.34-12.24-25.69-10.22-32.41-15.9-10.81-9.15-15.48-21.31-17.73-29.66-.24,5-.73,12.18-1.83,20.87-2.82,22.26-6.08,27-3,32.56,4.46,8.08,14.08,3.43,38.44,10.47C199.48,1683.07,235.08,1694.45,238.06,1692.73Z"/><path class="cls-6" d="M225.51,1743.71a162.76,162.76,0,0,0,21.82-40.4c9-24.58,9.69-44.66,10.09-62.06.83-35.31,4.84-70.49,5.81-105.79.71-25.57,1.91-63.84,4-111.57h0l-16.78,15.56s0,0,0,0c3.2-6.46,7.63-15.76,12.52-27.18,0,0,4.26-10,7.33-18,9.19-24.11,7.81-50.51,10.09-78.26.76-9.25,3.77-25.33,9.79-57.48,3.73-20,6.39-32.3,17.42-84.38,2.3-10.84,7.86-37.15,10.09-47.68h0L292,1140.75h0a237.79,237.79,0,0,0,19.24-27.49c7.8-13,10.53-20.5,16.82-21.4,7.25-1,14,7.4,17.12,11.31,11.05,13.83,10.41,25.92,16.51,53.19,3.82,17.1,4,11.84,11.31,40.67,2,7.89,6.76,26.94,11,48.61,1.54,7.85,3.74,19.77,11.61,80.71,5.49,42.5,6.79,55,13.15,75.21a265.87,265.87,0,0,0,13.44,34.21h0l-12.5-12.5h0a427,427,0,0,0,3.06,87.73c3.74,26.63,8.82,43.6,13.14,85.3,2,19.58,3,29.36,2.95,43.43-.21,29.83-4.68,37.32-1.11,50.74,3.18,12,12.69,28.23,42.6,43.41h0a91.92,91.92,0,0,1-57.2,9.4h0c-2.59-11-5.73-26.2-8.14-44.48a577.8,577.8,0,0,1-4.47-62.6c-.51-19.61.11-26.84-1.26-46.78-.82-11.85-1.57-17-2.87-29.69-2.63-25.73-3.68-45-5.05-70-2-36.67-3.09-61.91-3.09-61.91-.36-8.17-.76-17.9-2.52-31.07-1.41-10.49-2.62-15.26-5.51-30.61-2.28-12.18-3.74-21.07-6.65-38.87-.83-5.12-1.57-9.75-2.24-14.1-2.37-15.34-3.7-25-5.09-34.85-.83-5.8-3.3-22-8.26-54.46-4.49-29.42-4.28-27.82-4.47-29.24-2.32-17.15-5.8-34.15-7.68-51.36-.14-1.27-.9-4.4-2.41-10.66-1.25-5.17-2.37-9.32-5.27-10.27a2.66,2.66,0,0,0-1.15-.17c-2.52.32-3.7,5.24-5.33,11.7-.65,3-1.59,7.53-2.69,13-2.42,11.87-6.14,30.31-9.79,53.47-2,12.52-3.5,23.75-4.28,29.5-1.44,10.64-2.09,16.22-3.82,27.82-1.17,7.81-1.39,8.74-2.45,15.9-1.79,12.14-2.78,20.6-3.36,25.22-1.36,10.86-3.71,24.67-7.95,48.92-3,17.37-3.78,21-6,34.24-1.81,11-2.73,16.59-3.52,22.63-.47,3.67-2.17,17.18-3,36.68-.74,16.27,0,16.6-.61,42.2-.35,14.5-.53,21.75-1.19,30.3-1,13.19-1.84,15-3.55,34.36-.73,8.22-1.35,15.23-1.84,24.92-.4,7.93-.4,11.74-1,24.42-.38,7.7-.46,8-.8,14.56-.84,16.2-.55,18.63-1.26,34.85-.12,2.73-.58,12.9-1.49,26.14-.8,11.64-1.81,22.65-1.84,23.16-.22,3.82-1.18,12.34-3.67,26.33-1.08,6.09-2.55,13.75-4.51,22.62a71,71,0,0,1-18.61,1.88A71.72,71.72,0,0,1,225.51,1743.71Z"/><path class="cls-6" d="M520.77,1354.51l-10.2-100.32q1.38-79.34,2.75-158.68a191.59,191.59,0,0,1-56.86,13.3c-18.54,1.39-32.57,2.06-47.7-5-18.16-8.53-27-23.43-42.19-49.07a250.75,250.75,0,0,1-35-115.72,345.66,345.66,0,0,1-6.72,58.39c-5.1,25.12-8.65,42.76-21.1,62.37C296,1072,286.79,1086.46,268.89,1096c-29,15.43-62.61,8-84.38,3.21a186.16,186.16,0,0,1-18.35-5c.71,17.66,1.52,42.94,1.84,73.37.42,41.15.77,75.13-1.84,116.49a1058.88,1058.88,0,0,1-13.91,116.48,424.8,424.8,0,0,0,.77-44.18c-.38-10.92-1-18-2.6-37.6-1.29-16.2-2.41-32.41-3.67-48.61-3.84-49.22-6.25-96.74-7-112.82-1.8-37-2.88-59.34-3.06-85.91a1184.89,1184.89,0,0,1,7.57-141.06c68.1,5,126.08,7.34,171.15,8.43,52.7,1.27,90.3.95,99.11.86,48.35-.48,90-2.2,122.83-4.05-.36,15.26-.9,38.43-1.45,66.73-1,50.89-1.61,94.08-1.61,94.08-.81,57.6-.62,67.06-1.68,96.16-1,28.74-1.57,43.11-3.21,59.84-2.37,24.19-5,37.69-7,65.81C521.29,1333.65,520.92,1346.33,520.77,1354.51Z"/></g><g id="khtota"><path class="cls-7" d="M473.88,1422q2.5,120.23,5,240.44a7.93,7.93,0,0,0,1.18,4q5,8.1,10,16.19a7.77,7.77,0,0,1,1.15,3.43q1.41,15.18,2.81,30.37"/><path class="cls-7" d="M201.7,1419.28q-2.49,120.23-5,240.45a7.77,7.77,0,0,1-1.18,4q-5,8.1-10,16.2a7.89,7.89,0,0,0-1.14,3.42q-1.41,15.2-2.81,30.38"/><line class="cls-7" x1="214.09" y1="1134.95" x2="201.02" y2="1405.99"/><line class="cls-7" x1="462.42" y1="1139.08" x2="475.49" y2="1401.17"/><path class="cls-7" d="M331.83,938.44c-.05,30.1.23,55.74.57,75.9.52,30.38,1.19,49.69,1.43,56.2.46,12.66.94,23.38,1.33,31.39"/><path class="cls-7" d="M334.7,1069.83A26.83,26.83,0,0,0,348,1065c8.3-6,10.35-16.22,11.46-23.85,4.66-32,2.53-99,2.41-102.5"/></g></g></g><g id="right_lyd" data-name="right lyd"><g id="right_yd" data-name="right yd"><g id="right_yd-2" data-name="right yd"><path class="cls-8" d="M584.83,1019c1.5-.91,4.35-2.38,13.53-3.21a114.56,114.56,0,0,1,46.32,5.74c8.79,3,10.4,4.76,11,5.5,3.28,4,2.27,8.17,2.3,20.41,0,6.73.65,13.45.91,20.18.83,21.27.85,22.22.46,24.76-1.08,7-3.24,12.12-7.56,22.24-4.24,9.93-6.36,14.89-9.86,19.34-6.74,8.55-14.69,12.69-24.08,17.58a110.07,110.07,0,0,1-19.49,7.8c-9.21,2.89-15.41,3.77-21.86,3.05-7.23-.8-9.08-3-9.78-4.28-.5-.9-1.34-3,0-7,2.73-8.21,9.89-10.38,17.73-17.43,0,0,12.14-10.91,17.58-30.72a35.42,35.42,0,0,0,1.15-13.3c-.34-3-.55-5-1.84-7.11-2.68-4.49-6.52-4.14-7.72-7.87-.59-1.83,0-3.77,1.22-7.65,1.46-4.68,3.67-9,4-8.86.53.22-7,12.65-11.24,31.95-1.3,6-2.37,13-7.11,21.25-2.59,4.5-5.06,7.25-8.56,8.86s-9.77,2.78-12.84-.3c-1.76-1.77-2-4.45-1.22-11.32a127.16,127.16,0,0,1,4-19.56c3.79-13.74,5.68-20.61,6.12-26.6.55-7.57-.48-9.22.92-15.9a52.56,52.56,0,0,1,5.88-15.36C577.66,1026.07,580.05,1021.92,584.83,1019Z"/><path class="cls-9" d="M577.61,1160.48c1.89-1,4.48-2.36,7.45-4.24a114.43,114.43,0,0,0,12.61-9.52c12.13-10,12.59-11,12.73-12.15.79-6.66-9.83-12.85-12.27-14.22a64.48,64.48,0,0,1-4.36,6.77,67.66,67.66,0,0,1-5.5,6.53c-9.29,9.68-16.72,10.76-18.92,18.12a6.36,6.36,0,0,0,0,4.58C571,1160.1,576.88,1160.45,577.61,1160.48Z"/><path class="cls-10" d="M632.59,1089.48a244,244,0,0,1-13.24,35,53.63,53.63,0,0,1-9,13.39c-4.1,4.45-9,8.14-13.76,11.81a154.4,154.4,0,0,1-18,11.93c-.36.2-.56.46-.21.75s1.22-.06,1.53-.23a157.79,157.79,0,0,0,16.62-10.83,131,131,0,0,0,14.05-11.59,52.85,52.85,0,0,0,9.6-12.91,169.57,169.57,0,0,0,7.09-16.09c2.82-7,5.3-14.25,7.46-21.53.2-.66-2-.36-2.16.31Z"/><path class="cls-10" d="M649.45,1094.51q-5.73,13.38-12.27,26.4c-4,8-8.34,15.53-14.22,22.3a87.9,87.9,0,0,1-10.33,10.09c-.75.63,1,.6,1.38.26a88.46,88.46,0,0,0,17.76-19.87c4.67-7.23,8.31-15.17,12-22.93q3.87-8.17,7.43-16.48c.22-.51-1.5-.33-1.74.23Z"/></g><path class="cls-11" d="M581.61,998.25q.58,10.85,1.15,21.67a85.14,85.14,0,0,1,18.46-4.13,91.26,91.26,0,0,1,19.26.12,94.81,94.81,0,0,1,37.45,12.34l11.93-9.78a78.17,78.17,0,0,0-.88-8.75c-.48-3-1-5.16-1-5.28C666.63,999.2,630.35,996.78,581.61,998.25Z"/><path class="cls-5" d="M593.73,415.57a25.77,25.77,0,0,1,13.15,7.33,24.92,24.92,0,0,1,5.8,11.62c9.69,42.69,14.53,64,14.68,66,2,26.26,4,11.93,16.51,86.22,6.71,39.83,10.07,59.74,12.53,85.91,2,21,2.11,31.38,5.81,51.66,2.35,12.87,4.68,21.73,6.73,38.22,1.75,14,2.18,24.71,2.45,31.49,2.35,61,3.3,91.43,3.66,111.9.5,27.57.52,67-1.83,115.57a100.19,100.19,0,0,0-8.87-5.81,102.2,102.2,0,0,0-40.66-13.45,95.16,95.16,0,0,0-28.74,1.52,92.21,92.21,0,0,0-18.49,6c-.08-15.81-.47-33.48-1.38-52.74-1.74-36.61-2.61-54.92-6.42-76.12-5.2-28.91-9.19-30.87-10.09-51.83-.62-14.29.78-24.07-2.06-41C554.2,774.32,552,775,548,757.6c-5-21.82-1.92-22.62-6.88-44.86-3.75-16.82-6.47-20.59-7-33A95.25,95.25,0,0,1,536.56,654c9.72-45.17,5.63-58.41,19.56-114,2.54-10.11,10.46-36,26.3-87.75C587.13,436.84,591.07,424.14,593.73,415.57Z"/><path id="chadow" class="cls-12" d="M577.41,1008.3c2.43-1,5.09-2,8-3a93.38,93.38,0,0,1,11.69-2.94c5.79-36.87,4.16-66.19,1.53-86.33-4.85-37.19-15.07-58.85-18-105.48a361.89,361.89,0,0,1,0-45.86l33,10.09L577.83,739c-18.15-46.85-20.94-84.56-20.18-110.06.28-9.33,2-24,5.51-53.2,6.75-56.73,13.79-96.86,12.23-97.15-.38-.07-.89,2.21-6.1,19.59-4.78,15.91-5.16,16.71-7.57,25.05-2.12,7.37-4.76,16.51-7.28,27.13a444.12,444.12,0,0,0-8.86,50.6c-.6,5.17-1.48,13.73-3.21,26.45-1.3,9.49-2,13.44-2.68,16.89-1.9,9.59-2.65,10-3.67,16.59a82.9,82.9,0,0,0-.91,20.1,96.74,96.74,0,0,0,2.52,14.6c1.62,7.21,2.32,7.84,4.12,15.36A177.11,177.11,0,0,1,545,728.79c1.25,9.41.39,8.8,1.61,17.35,1,7.16,1.81,12.71,4.28,19.57,1,2.67,2,5.1,3.51,9.93.64,2.07,1.6,5.16,2.45,9.1a92.87,92.87,0,0,1,1.76,12c.7,8.09.4,11.58.61,23,.19,10.63.15,16.1,1.26,22,.77,4,1.38,5.59,3.73,15,0,0,1.94,7.78,4.18,17.77,1.12,5,3.49,16.71,5.62,45.17.38,5.11,1.14,15.92,2.06,41.28C576.55,972.9,577.05,989.05,577.41,1008.3Z"/></g></g><g id="left_yd" data-name="left yd"><g id="left_yd-2" data-name="left yd"><g id="right_yd-3" data-name="right yd"><path class="cls-8" d="M91.49,1016.1c-1.49-.91-4.35-2.39-13.53-3.21a111.59,111.59,0,0,0-26.6.92,112.78,112.78,0,0,0-19.72,4.81c-8.79,3-10.4,4.77-11,5.51-3.28,4-2.27,8.16-2.3,20.4,0,6.74-.65,13.45-.91,20.18-.83,21.27-.85,22.23-.46,24.77,1.08,7,3.24,12.11,7.56,22.24,4.24,9.93,6.36,14.89,9.86,19.34,6.74,8.54,14.69,12.69,24.08,17.58A111.3,111.3,0,0,0,78,1156.43c9.21,2.9,15.41,3.78,21.86,3.06,7.23-.81,9.08-3,9.78-4.28.5-.9,1.34-3,0-7-2.72-8.21-9.89-10.39-17.73-17.43,0,0-12.14-10.91-17.58-30.73a35.23,35.23,0,0,1-1.14-13.3c.33-3,.55-5,1.83-7.1,2.68-4.49,6.52-4.15,7.72-7.88.59-1.82,0-3.76-1.22-7.64-1.46-4.69-3.67-9-4-8.87-.53.22,7,12.65,11.24,32,1.3,6,2.37,13,7.11,21.25,2.59,4.51,5.06,7.25,8.56,8.87s9.77,2.77,12.84-.31c1.76-1.77,2-4.44,1.22-11.31a127.09,127.09,0,0,0-4-19.57c-3.79-13.74-5.68-20.61-6.12-26.6-.55-7.56.48-9.21-.92-15.89a52.69,52.69,0,0,0-5.88-15.37C98.66,1023.17,96.27,1019,91.49,1016.1Z"/><path class="cls-9" d="M98.71,1157.58c-1.89-1-4.48-2.37-7.45-4.24a114.43,114.43,0,0,1-12.61-9.52c-12.13-10-12.59-11-12.73-12.15-.79-6.66,9.83-12.85,12.27-14.22a63.49,63.49,0,0,0,4.36,6.76,67.29,67.29,0,0,0,5.5,6.54c9.29,9.68,16.72,10.76,18.92,18.11a6.39,6.39,0,0,1,0,4.59C105.31,1157.2,99.44,1157.54,98.71,1157.58Z"/><path class="cls-10" d="M41.56,1086.71a235.8,235.8,0,0,0,13.54,35.6,53.74,53.74,0,0,0,9.07,13.32c4.16,4.45,9.07,8.17,13.89,11.86a156.6,156.6,0,0,0,18.12,12c.55.32,2.56-.52,1.74-1a155.13,155.13,0,0,1-16.55-10.81,127.56,127.56,0,0,1-13.89-11.51,51.55,51.55,0,0,1-9.55-13.1c-2.6-5.07-4.75-10.41-6.85-15.7-2.77-6.95-5.21-14-7.34-21.21-.2-.67-2.37-.08-2.18.58Z"/><path class="cls-10" d="M25.13,1091.72q5.88,13.69,12.57,27c4,7.92,8.34,15.39,14.18,22.09a89.77,89.77,0,0,0,10.31,10c.46.38,2.07-.29,1.62-.67a88.09,88.09,0,0,1-17.65-19.75c-4.69-7.26-8.33-15.25-12-23q-3.8-8-7.27-16.14c-.25-.58-2,0-1.74.47Z"/></g><path class="cls-11" d="M94.71,995.35q-.58,10.83-1.15,21.67a84.55,84.55,0,0,0-18.46-4.13,91.7,91.7,0,0,0-19.26.11,95,95,0,0,0-37.45,12.35l-11.93-9.78a78.31,78.31,0,0,1,.88-8.76c.48-3,1-5.16,1-5.27C9.69,996.29,46,993.88,94.71,995.35Z"/><path class="cls-5" d="M82.59,412.66A25.81,25.81,0,0,0,69.45,420a24.88,24.88,0,0,0-5.81,11.62c-9.69,42.68-14.53,64-14.68,66-2,26.26-4,11.94-16.51,86.22-6.71,39.83-10.07,59.75-12.53,85.91-2,21-2.11,31.39-5.81,51.67-2.35,12.87-4.68,21.72-6.73,38.22-1.75,14.05-2.18,24.71-2.44,31.49-2.36,61-3.31,91.42-3.67,111.9-.5,27.56-.52,67,1.83,115.56a104.93,104.93,0,0,1,8.87-5.81,102.43,102.43,0,0,1,40.66-13.45,94.72,94.72,0,0,1,28.74,1.53,92.33,92.33,0,0,1,18.5,6c.07-15.82.46-33.49,1.37-52.74,1.74-36.62,2.61-54.93,6.42-76.13,5.2-28.9,9.19-30.86,10.09-51.82.62-14.29-.78-24.07,2.06-41,2.31-13.78,4.47-13.11,8.49-30.5,5-21.82,1.92-22.63,6.88-44.87,3.75-16.81,6.47-20.58,7-33a95.35,95.35,0,0,0-2.45-25.68c-9.72-45.17-5.63-58.4-19.56-114-2.54-10.11-10.46-36-26.3-87.74C89.19,433.94,85.25,421.23,82.59,412.66Z"/><path id="chadow-2" data-name="chadow" class="cls-12" d="M98.91,1005.4c-2.43-1-5.09-2-8-3a91.25,91.25,0,0,0-11.69-2.94c-5.79-36.87-4.16-66.19-1.53-86.34,4.85-37.19,15.07-58.85,18-105.47a361.89,361.89,0,0,0,0-45.86l-33,10.09,35.77-35.77c18.15-46.85,20.94-84.57,20.18-110.07-.28-9.33-2-23.95-5.51-53.2-6.75-56.72-13.78-96.85-12.22-97.14.37-.07.88,2.21,6.09,19.58,4.78,15.92,5.16,16.71,7.57,25.05,2.12,7.37,4.76,16.51,7.28,27.14a443.74,443.74,0,0,1,8.86,50.6c.6,5.17,1.48,13.72,3.21,26.44,1.3,9.5,2,13.44,2.68,16.89,1.9,9.59,2.65,10,3.67,16.59a82.85,82.85,0,0,1,.92,20.1,98,98,0,0,1-2.53,14.6c-1.62,7.22-2.32,7.85-4.12,15.36a180.82,180.82,0,0,0-3.29,17.81c-1.25,9.42-.38,8.81-1.61,17.35-1,7.16-1.81,12.71-4.28,19.57-1,2.68-2,5.11-3.51,9.94-.64,2.06-1.59,5.16-2.45,9.09a93.11,93.11,0,0,0-1.76,12c-.69,8.1-.4,11.59-.61,23-.19,10.63-.14,16.09-1.26,21.95-.77,4.05-1.38,5.59-3.72,15,0,0-2,7.77-4.19,17.77-1.12,5-3.49,16.7-5.62,45.17-.38,5.11-1.14,15.92-2.06,41.27C99.77,970,99.27,986.15,98.91,1005.4Z"/></g></g><g id="veste"><g id="Veste-2" data-name="Veste"><g id="chemise"><path id="_9amija" data-name="9amija" class="cls-11" d="M410.6,315.21a31.46,31.46,0,0,1-.69,11.23c-2,7.85-6.66,12.81-11.24,17.43C380,362.7,378.11,360.73,365,374.14a83.51,83.51,0,0,1-17.43,12.61,16.38,16.38,0,0,1-8.94,2.52,21.2,21.2,0,0,1-7.34-2.06,55.51,55.51,0,0,1-7.34-3.9c-4.44-2.6-6.66-3.9-9.4-5.73-4.18-2.79-7.06-5.11-8.71-6.42-12.4-9.83-14.27-9.59-21.1-15.59-6.15-5.41-11.59-10.17-15.36-18.12a44.87,44.87,0,0,1-3.9-23.39c-.23.71-.6,1.83-1.06,3.2-2.58,7.72-4.72,13.36-5.13,14.46-2.73,7.28-6.85,21.24-8.72,29.12-5.56,23.44-3.39,44.43-2.29,54.34a180.09,180.09,0,0,0,9.63,41.28c23.81,277.49,49.3,481.22,62.6,482.67a150.18,150.18,0,0,0,17.43.69,134.65,134.65,0,0,0,17.65-1.61c31.1-280,44-390.9,48.84-427.41,4.59-34.86,8.06-49.69,7.57-75.67,0,0-.7-36.88,2.52-57.78.8-5.19,1.58-10.39,2.3-15.59.51-3.75,1.24-9.1,2.06-15.6,1-8,1.28-10.65.46-14.44a34.62,34.62,0,0,0-3.44-8.94A39.58,39.58,0,0,0,410.6,315.21Z"/><path class="cls-7" d="M332.48,387.9a132.13,132.13,0,0,0-55.8,44.48"/><path class="cls-7" d="M346.85,387a138.36,138.36,0,0,1,32.87,19.41,136.73,136.73,0,0,1,18.95,18.35"/></g><g id="graphate"><path id="graphate-2" data-name="graphate" class="cls-13" d="M354.65,390.5a27.71,27.71,0,0,1-7.95,3.66,30.87,30.87,0,0,1-14.37.31,38.38,38.38,0,0,1-8.26-2.45,120,120,0,0,0-30.19,21.9A169.68,169.68,0,0,1,308,428.56c6.83,8,9,12,9.63,16.66a26.37,26.37,0,0,1,0,6.42,95.46,95.46,0,0,1-4.58,22c-1.31,4.06-2.71,11.37-5.51,26A292,292,0,0,0,303,540c-1.14,19.06-1.82,30.37.3,44.94a145.12,145.12,0,0,0,8.56,32.1c7.33,19.37,15.54,59.18,21.41,145.84a1027.22,1027.22,0,0,0,26-112.21c5.87-34,7.14-52.21,7.65-61.6.86-16.12-.42-8.82-2.3-74.75,0,0-.89-31.15-7.95-47.09-2.93-6.61-6.42-13.75-6.42-13.75-1.49-3.06-2.74-5.52-3.51-7a84.26,84.26,0,0,1,8.86-15.28,95.26,95.26,0,0,1,17-17.58c3.2-2.66,6-4.69,8-6.08Z"/><path class="cls-7" d="M318,447.13a26.75,26.75,0,0,1,28.73-.92"/><path id="chadow-3" data-name="chadow" class="cls-14" d="M344.67,395.58a77.53,77.53,0,0,0-25,15.4,74.06,74.06,0,0,0-6.39,6.67,4.91,4.91,0,0,0-1,4.4c.18.73.41,1.53.69,2.38,2.07,6.2,5,8,6.12,12.54a16.22,16.22,0,0,1-.35,8.59,24,24,0,0,0-1.52-5.65c-1.06-2.58-2.37-4.41-5-7.68s-4.25-5.26-7.42-8.65c-2.4-2.58-5.59-5.86-9.55-9.54a127.21,127.21,0,0,1,11.93-10.4c4.28-3.26,7.69-5.37,8.4-5.81.95-.58.42-.23,3.6-2.1,3.82-2.25,4.16-2.51,5-2.64,1.75-.26,2.27.53,5.77,1.57a38.68,38.68,0,0,0,6.65,1.26A30.37,30.37,0,0,0,344.67,395.58Z"/></g><g id="Veste-3" data-name="Veste"><path class="cls-5" d="M117.91,1057.47c-.12,4,3.89,6.1,4.82,7,11.83,11.28,49.22,16.1,64.53,18.22,31.26,4.34,34,6.28,46.09,4.82,6.64-.81,21.74-2.64,35.77-11.7,9.59-6.19,20.13-16.7,34.39-55,8.59-23.06,14.42-45.17,22-84.61,3.58-18.61,8.06-43.65,12.38-73.6,2.3,14.88,5.86,36.26,11,61.91,4.46,22.23,8.27,41,15.21,65,11.28,38.95,20.79,57.06,30.88,71.24,8.67,12.18,18.12,21.95,31.65,25.45,6.6,1.71,11.67,1.28,19.41.54,38.42-3.67,57.63-5.5,68.79-8.56a230.67,230.67,0,0,0,41.58-15.9c-1-31.44-3.15-65-7-100.28-2.57-23.31-5.67-45.64-9.17-67a4.37,4.37,0,0,0,3.36-.61c1.85-1.44,1.44-4.76,1.22-6.42-3-22.55-7-34.85-7-34.85-.72-1.83-1.62-4.34-2.48-7.39-.26-.92-.57-2-.88-3.47a52.46,52.46,0,0,1-1.07-8.1c-.31-4.33-.34-6.64-.46-9.32-.22-4.83-.63-8.29-1.22-13.3-.79-6.67-1.18-7.71-1.94-13.55-.79-6.09-1.09-10.53-1.43-15.5a502.29,502.29,0,0,1,.61-72.91c1.28-13.27,2.88-23.15,4-29.81,11.57-70.32,17.36-105.47,23.08-130.4a1093.8,1093.8,0,0,1,39.9-133.45L461,366.7a26.87,26.87,0,0,1-9.93-6.35c-9.69-9.77-19.54-20.58-29.31-32.53q-5.85-7.17-11.15-14.22a58.29,58.29,0,0,1,5.65,17.58,60.73,60.73,0,0,1-1.68,24.92c-4.38,17.17-6.61,35-12.53,51.67-7.12,20.08-12.24,46.61-22.48,99.67C370,556.92,375.41,548,364.28,611.23c-2,11.56-8.7,42.41-22,104.11-1.78,8.25-7.51,34.65-9,34.39-1-.17,1.09-12,.91-26.29-.27-21.9-5.68-37.81-8.56-47.09-1.17-3.79-6.8-32.79-18-90.8-15.23-78.58-8-68.1-18.95-113.73-7.81-32.6-13.87-65.62-22-98.14a135.69,135.69,0,0,1-4.28-37,133.6,133.6,0,0,1,2.44-22.63,107.76,107.76,0,0,1-16.51,27.21,91,91,0,0,1-16.51,15.9,85.82,85.82,0,0,1-31.49,14.06c-20,4.93-60.13,19.22-120.46,42.5,4,10.47,9.41,25,15.29,42.5,14.71,43.8,23.29,78.79,27.21,95.69,2.36,10.16,6.67,29.48,11,54.12,4.2,23.91,6.49,41.81,9.17,63,4.69,37.1,7,55.65,7.64,69.7,1.32,30.6,2.71,62.78-5.5,90.5-4.21,14.2-6.55,28.9-10.7,43.11-1.34,4.57-1.26,9.46-2.45,14.06-.54,2.09-1.27,4.59,0,6.73s3.76,2.79,5.2,3.06c-1.44,8.43-3.43,20.53-5.5,35.16-2.41,16.92-2.24,18.22-6.42,52.58-3.75,30.81-5.1,39.75-6.12,57.17C118.25,1047.42,118,1053,117.91,1057.47Z"/><g id="shadow-2" data-name="shadow"><path class="cls-15" d="M155.39,1076.25c-1.15-35.37-.9-73.15,1.37-113q1.56-27.29,4.13-53c7,1.12,12.52,2,15.59,2.52,14.57,2.41,22.86,3.92,32.1,1.61a15.08,15.08,0,0,0,8-4.36c.67-.75,1.89-2.32,3.51-9.4a88.26,88.26,0,0,0,2.28-18.17c.07-3.49-.05-7.11-.23-7.11s-.34,4.54-1,11.06c-1.33,13.69-2.91,16.41-4.28,18.12a17.38,17.38,0,0,1-6.49,5,16.75,16.75,0,0,1-7.11,1.3c-6-1.11-10.89-2.06-14.45-2.76-6.89-1.34-12.85-2.55-21.78-4.35l-6.59-1.34c2.41-19.69,4.39-35.42,5.67-45.59,3.48-27.46,4.11-31.71,4.82-41.66,1.2-17,1.24-31.52,1.26-41.73,0-11.58-.21-21.37-.46-28.66,1.52,2.46,3.71,5.95,6.42,10.09,6.33,9.65,10.27,15.66,14.79,21a87.73,87.73,0,0,0,21.33,18c-1.72-4.07-4.42-10.33-7.92-17.89-9.26-20.06-14.73-29-20.29-40.59-2.56-5.36-7-18.21-15.82-43.68-12.7-36.75-19-55.13-21.4-63.86-2.48-9.21-4-15.22-6.15-22.35-.51-1.65-1.88-6-3.63-11a327.75,327.75,0,0,0-13.56-32.63c2.5,11.41,4.46,21.27,6,29.21.56,3,1,5.39,1.35,7.28,0,0,2.66,14.61,4.95,28.55,2.37,14.48,2.87,22.72,6.34,50.9,4,32.83,5.19,36.5,6.5,54.27,1.23,16.78,1.35,29,1.37,32.56.11,17.54.25,39.85-4.66,57.78-.63,2.32-2.3,8-4.32,16.44-1.42,5.91-2,8.83-3.55,15.55-1.54,6.51-2.89,11.72-3.75,14.94-.48,1.8-1,3.59-1.45,5.39-.28,2-.54,3.77-.76,5.2-.66,4.24-1,6.36-1,6.53-.55,2.28-1.15,3.54-.65,5.16a4.86,4.86,0,0,0,1.24,2.09,6.65,6.65,0,0,0,1.59,1.05,3.78,3.78,0,0,0,1.23.49c.67.12.92-.08,1.21.09.48.29.4,1.24.33,2a67.93,67.93,0,0,1-1.17,7.86l-.07.3h0a49.61,49.61,0,0,0-1.34,8.29c-4.83,33.09-6.63,47.81-7.33,55-.19,1.88-.57,6-1.27,11.81-.81,6.79-1.18,8.61-2.17,16.74-.58,4.7-.5,4.52-1.23,10.55-1,8-1.18,9.09-1.6,12.76-.31,2.72-.59,5.56-1.42,20-.27,4.77-.62,11-1,18.31a18.53,18.53,0,0,0,2.29,3.32,21,21,0,0,0,5.58,4.36,61.22,61.22,0,0,0,8.49,4.2,83.45,83.45,0,0,0,10.54,3.44C148.28,1074.79,151.53,1075.57,155.39,1076.25Z"/><path class="cls-15" d="M520.28,1075.64c1.6-35.55,1.68-73.84-.54-114.5-1-18.24-2.4-35.9-4.12-53-7.05,1.11-12.53,2-15.6,2.52-14.56,2.41-22.85,3.92-32.1,1.6a15,15,0,0,1-8-4.35c-.67-.76-1.89-2.32-3.52-9.4a88.08,88.08,0,0,1-2.27-18.18c-.07-3.49.05-7.1.23-7.1s.34,4.54,1,11.06c1.33,13.69,2.92,16.4,4.28,18.11a17.38,17.38,0,0,0,6.5,5,16.58,16.58,0,0,0,7.11,1.3c5.95-1.11,10.89-2.06,14.44-2.75,6.89-1.34,12.85-2.55,21.78-4.36l6.6-1.33c-2.42-19.69-4.39-35.42-5.68-45.6-3.47-27.45-4.11-31.7-4.81-41.65-1.21-17-1.24-31.52-1.26-41.74,0-11.58.2-21.37.45-28.66-1.52,2.46-3.71,6-6.42,10.09-6.32,9.66-10.26,15.67-14.79,21a87.42,87.42,0,0,1-21.32,18c1.72-4.06,4.42-10.32,7.91-17.88,9.27-20.07,14.73-29,20.29-40.59,2.57-5.37,7-18.21,15.82-43.68,12.71-36.76,19.06-55.14,21.41-63.86,2.48-9.22,4-15.22,6.15-22.36.14-.46,1.91-6.12,3.63-11a236.54,236.54,0,0,1,16.05-35.08q-1.56,7.23-3.06,14.68-1.23,6.16-2.37,12.23c-.39,2.12-.94,5.14-1.53,8.79-.92,5.74-1,7.2-1.91,12.38-.41,2.43-.84,4.63-1.68,9-.7,3.63-1.25,6.39-2,10.7-.24,1.45-.42,2.55-.51,3.12-1.81,11.11-2.67,16.67-3.37,20.9-1.08,6.45-2.5,15.06-4.39,26.69-2.62,16.12-4.36,27.12-5.33,42-.35,5.34-.54,10.32-.63,12.73-.66,17.46-.32,30.53-.23,33.82.2,7.12.71,25,2.6,36.08.11.68.75,4.36,1.43,9.32.5,3.62.88,6.44,1.15,10.17.14,2,.23,4.24.4,8.71,0,0,.17,4.44.55,8.35a33.9,33.9,0,0,0,.6,3.9c.16.77.3,1.31.55,2.25,1.68,6.34,2.26,8,2.48,8.68.47,1.35.4,1,.84,2.29a70.75,70.75,0,0,1,2.18,7.93c.54,2.32,1.17,5.13,1.84,8.35.47,2.51.81,4.54,1,5.95.32,2.06.32,2.26.74,4.93.18,1.1.39,2.38.67,4.3.16,1,.29,2,.4,3.19.08.84.13,1.56.16,2.06s-.12.78-.17,1.17a2.53,2.53,0,0,1-.44,1.08,2.68,2.68,0,0,1-1.38,1,3.75,3.75,0,0,1-2.68-.17,1.53,1.53,0,0,0-.26.53,1.72,1.72,0,0,0,.05.92c.39,1.16.4,2.42.73,3.59a20.24,20.24,0,0,1,.69,4.24c.32,2.18.78,5.23,1.32,8.89,1.4,9.59,2.43,16.61,3.61,25.57,1.59,12.14,3,24.09,3.44,29.08,0,.57.28,3,.63,6.25.3,2.84.42,3.7.63,5.56.81,7.27.6,8.57,1.32,14.94.14,1.29.33,2.86.51,5.16.14,1.68.13,2.06.29,3.9s.24,2.27.4,4.13c.1,1.09.16,2,.29,3.78.22,3.27.35,5.17.51,8.08.09,1.53.13,2.43.46,9.58.37,8.09.37,8,.46,9.94.25,5.19.31,5.88.46,9.17.18,4,.28,7.26.34,9.36.11,1.7.21,3.41.31,5.12-1.42.72-3.4,1.72-5.81,2.83-3.59,1.65-6.33,2.75-9.78,4.12-2.32.93-5.47,2.15-9.25,3.52C527.8,1073.12,524.28,1074.34,520.28,1075.64Z"/><path class="cls-16" d="M316.58,739c-7.91-10.2-11.4-19.25-14.67-27.52-9-22.78-8.49-15.87-20.36-44.63-6.8-16.48-11.72-30.22-16.79-45.1C251.69,583.44,241.2,550.84,229,503.46c-10.2-39.58-16.74-71.48-15.78-71.73.14,0,.72,1.13,1.87,3.48.8,1.62,1.77,3.75,2.83,6.53s1.67,4.81,2.48,7.49c.69,2.27,1.13,3.9,2,6.91,1,3.7,1.72,6.51,1.89,7.17,1.71,6.71,2.52,10.59,3.44,14.44,1.42,5.9,3.11,11.22,6.51,21.87,1.39,4.35,2.81,8.68,4.81,14.59,3.27,9.63,6.1,17.63,10.37,29.5,4.12,11.45,5,13.8,12.6,34.73,6.07,16.72,5.84,16.16,8.51,23.45,5.36,14.68,8.31,22.75,12.52,33.76,5.18,13.53,7.76,20.3,11.66,29.35,1.68,3.9,2.76,6.29,8,18.23,2.11,4.86,2.68,6.23,6.65,15.37,4.6,10.61,6.94,16,9.05,20.75,3.49,7.82,3.29,7.14,5.94,13.15,2.32,5.28,3.58,8.31,4.95,10.92.65,1.23,1.08,2.58,1.81,3.76s1.34,1.91,1.2,3c0,.31-.12.45-.37,1.58s-.23,1.36-.31,1.43C330.8,753.77,323.52,748,316.58,739Z"/><path class="cls-16" d="M340.89,754.93c-2.15,4.26-5.11,11.85-3.67,12.84,1.65,1.13,9.55-7.08,15.29-14.06,10.13-12.34,15.57-23.31,21.4-35.47,12-25.14,18.08-37.72,22.93-50.14,7-17.83,11.08-31.4,15-44.33C431,560.14,442.43,519.25,450,491.69c11.14-40.38,16.26-59.67,14.9-60.11-.95-.31-4.78,8.72-6.42,12.84a133.57,133.57,0,0,0-7.45,25.79c-2.05,11.52-8.94,32.47-22.74,74.37-3.25,9.87-7.75,23.19-12.12,35.13-3.54,9.69-5.22,13.81-10.2,27.51-5.75,15.82-5.11,14.71-8.83,24.77-3.84,10.38-8.93,24.15-16.28,40.47-1.4,3.1-2.11,4.59-8.94,19.6l-6.31,13.87q-4,8.42-8.14,16.86-3.78,7.77-7.56,15.48c-1.12,2.39-2.93,6.11-5.51,10.54C342.63,751.94,342,752.73,340.89,754.93Z"/></g><g id="khtota_veste" data-name="khtota veste"><path class="cls-7" d="M454.11,363.07c2.1,7.2,3.84,12.3,5.27,16.11,0,0,.55,1.47,2.18,10.32a7.35,7.35,0,0,1-.36,4.32s0,.29-.18.38l-23.53,10.18a0,0,0,0,0,0,.06l24.06,13.31a8,8,0,0,1,4,5.08,14.4,14.4,0,0,1,.35,2.21,17,17,0,0,1-2.07,8.72c-11.05,20.82-12.84,45.39-20.63,67.64-10.9,31.12-16.35,46.68-21.56,61-16.46,45.24-24.69,67.86-30,81.4a1084.94,1084.94,0,0,1-52.05,112.36"/><path class="cls-7" d="M225.21,361.76c-1.52,3.29-3.55,7.77-5.85,13.18-3.05,7.19-4.81,11.82-2.84,16.16,0,.1,0,.3.18.37l23.53,10.18s0,.05,0,.07L216.16,415a8,8,0,0,0-4,5.08,14.43,14.43,0,0,0-.34,2.21,17,17,0,0,0,2.06,8.71c11.06,20.82,12.85,45.4,20.64,67.65,10.9,31.12,16.35,46.68,21.55,61,15.71,43.15,23.55,64.73,30,81.4,10.5,27,25.88,64.18,47.1,108.66"/><path class="cls-7" d="M140.94,846c12.57,3.32,26.47,6.39,41.58,8.86,13.81,2.26,26.82,3.71,38.83,4.59"/><path class="cls-7" d="M139.11,852.92a507.26,507.26,0,0,0,54.11,10.85c10.15,1.46,19.95,2.56,29.35,3.36a75.56,75.56,0,0,1-.92,18.65c-1.55,8.92-3.15,18.08-9.78,22-4.71,2.8-10.07,1.83-13.15,1.23-16.86-3.29-37.82-7.53-62.06-12.84"/><path class="cls-7" d="M534.26,844.05A357.66,357.66,0,0,1,455,858.11"/><path class="cls-7" d="M536.4,850.62a407.63,407.63,0,0,1-53.29,11.77c-10.24,1.55-20.05,2.64-29.35,3.37a75.6,75.6,0,0,0,.92,18.65c1.55,8.92,3.15,18.08,9.78,22,4.71,2.79,10.07,1.82,13.15,1.22,16.86-3.29,37.82-7.53,62.06-12.84"/><path class="cls-7" d="M431.69,553a301,301,0,0,0,93.1-11q.23,11.68.46,23.38c-6.36,1.29-15,2.94-25.23,4.59-8.72,1.41-21.82,3.5-39,5-8.3.75-19,1.51-31.64,1.84Q430.54,564.92,431.69,553Z"/><line class="cls-17" x1="354.41" y1="781.55" x2="366.89" y2="781.16"/><path class="cls-18" d="M354.75,880.39l24.89-1.63"/><path class="cls-7" d="M333.25,749.73a165.82,165.82,0,0,0-3.06,19.57c-1.53,16-.32,28.07.92,39.74,2.33,22,4.41,40.75,6.42,58.09"/><circle class="cls-19" cx="344.4" cy="782.29" r="9.94"/><circle class="cls-19" cx="315.67" cy="881.04" r="9.94"/></g><g id="GoToDev_LOGO" data-name="GoToDev LOGO"><path class="cls-20" d="M477.61,637.84h4.82a.89.89,0,0,1,.89.89v.76a.66.66,0,0,1-.66.66h-4.83a1.15,1.15,0,0,1-1.15-1.15v-.25A.92.92,0,0,1,477.61,637.84Z" transform="translate(1119.01 158.99) rotate(90)"/><path class="cls-20" d="M472.85,638.49h4.82a.89.89,0,0,1,.89.89v.25a1.17,1.17,0,0,1-1.17,1.17h-4.32a1.15,1.15,0,0,1-1.15-1.15v-.25a.92.92,0,0,1,.92-.92Z" transform="translate(1114.89 164.4) rotate(90)"/><path class="cls-20" d="M485,630h8.07a2.07,2.07,0,0,1,2.07,2.07v.25a0,0,0,0,1,0,0H484.41a.48.48,0,0,1-.48-.48v-.75A1.09,1.09,0,0,1,485,630Z" transform="translate(1120.72 141.65) rotate(90)"/><path class="cls-20" d="M493.43,616.8a4.81,4.81,0,0,0-4.3,2.65H473.59v3.69h9.93v16.78h.75a1.56,1.56,0,0,0,1.56-1.56V623.14h3.05a4.8,4.8,0,1,0,4.55-6.34Zm0,7a2.16,2.16,0,1,1,2.15-2.16A2.16,2.16,0,0,1,493.43,623.76Z"/><path class="cls-20" d="M465.78,611.59h25.49v-3.7l-23.48-.07a12.3,12.3,0,0,0-2,.07,13.24,13.24,0,0,0-7.16,3.37,12.52,12.52,0,0,0-3.58,8.87,12.84,12.84,0,0,0,1.41,5.61,12.17,12.17,0,0,0,3,3.79,12,12,0,0,0,4.33,2.23c.56.15,2.32.56,2.32.56h0a3.91,3.91,0,0,0,.58,0H471a4.82,4.82,0,1,0,.29-3.7l-4.26,0-.75,0a6.76,6.76,0,0,1-1.16-.18,7.35,7.35,0,0,1-1.65-.62,7.9,7.9,0,0,1-2.26-1.78,10,10,0,0,1-2.51-6C458.75,616.47,461.56,613,465.78,611.59Zm9.83,17a2.24,2.24,0,1,1-2.23,2.23A2.23,2.23,0,0,1,475.61,628.57Z"/><path class="cls-20" d="M488.76,595a4.82,4.82,0,0,0-4.39,2.83H466.78l-1.59.11v0a22.25,22.25,0,0,0,2.09,44.41h4.65v-3.61h-4.72a18.66,18.66,0,0,1-1.38-37.22h18.43a4.82,4.82,0,1,0,4.5-6.53Zm0,7a2.24,2.24,0,1,1,2.24-2.23A2.23,2.23,0,0,1,488.76,602Z"/></g></g></g></g><g id="head"><g id="head-2" data-name="head"><g id="l3an9"><path class="cls-21" d="M412.62,294.17,386,294c0,.06-.09.12-.14.17l-.13.17c-.14.17-.33.39-.54.66,0,0-.3.35-.55.66a33,33,0,0,1-7.28,7,13.66,13.66,0,0,1-5,2.27,14.28,14.28,0,0,1-5.13.05c-2.22-.39-2.41-1-3.83-1-2,0-3.07,1.11-5,2.32a25.77,25.77,0,0,1-8.1,3.24,28,28,0,0,1-9.38.65,25,25,0,0,1-7.35-1.73c-1.42-.59-2.28-1.13-6.69-3.13a8,8,0,0,0-4.21-1.08c-1.35.1-1.82.6-3.35,1.19a16.65,16.65,0,0,1-6.47.86,14.69,14.69,0,0,1-6.27-2.27,42.71,42.71,0,0,1-9.82-7.77c-.86-.9-1.67-1.8-2.41-2.67.44,0,.15-.33-.28-.33L263.08,293l0,.5q1.36,16,2.71,32.07a35.76,35.76,0,0,0,3.66,13,66.8,66.8,0,0,0,13,18.07c6.52,6.4,11.81,8.81,26.39,18,8.61,5.4,15.76,10.22,21.07,13.9a18.24,18.24,0,0,0,11,3.27h.11l.64,0a21.11,21.11,0,0,0,10.29-3.66c9.89-6.75,18.08-12.83,24.37-17.68,16.85-13,21.91-18.52,25.43-23a96.47,96.47,0,0,0,8.1-12.09,21.23,21.23,0,0,0,2.75-10.44V294.17Z"/><path class="cls-22" d="M412.34,294.51l-.52.54,0,0-.71.75c0,.06-.12.12-.18.18-3.67,3.92-8.73,9.6-14.31,16.79-7.26,9.34-7.92,11.8-15.06,20.73-9.8,12.25-14.69,18.37-22,22.5-3.69,2.09-12.69,7.16-24.29,6.16-11.94-1-21.19-8-27.69-13a75.08,75.08,0,0,1-6.16-5.18A103.42,103.42,0,0,0,314.5,371.9a101.4,101.4,0,0,0,9.56,12.15c-2.53-1.68-6.58-4.35-11.61-7.56-19-12.1-22.48-13-29.15-19.48a79.8,79.8,0,0,1-12.69-17,36.45,36.45,0,0,1-3.07-7.21,35.47,35.47,0,0,1-1.22-5.61q-1-11.44-2-22.91c-.28-3.44-.57-6.88-.85-10.32,0-.19,0-.38,0-.58l31,.24c.74.87,1.55,1.77,2.41,2.67a42.71,42.71,0,0,0,9.82,7.77,14.69,14.69,0,0,0,6.27,2.27,16.65,16.65,0,0,0,6.47-.86c1.53-.59,2-1.09,3.35-1.19a8,8,0,0,1,4.21,1.08c4.41,2,5.27,2.54,6.69,3.13a25,25,0,0,0,7.35,1.73,28,28,0,0,0,9.38-.65,25.77,25.77,0,0,0,8.1-3.24c1.9-1.21,3-2.33,5-2.32,1.42,0,1.61.58,3.83,1a14.28,14.28,0,0,0,5.13-.05,13.66,13.66,0,0,0,5-2.27,33,33,0,0,0,7.28-7l1.09-1.32,26.56.2Z"/></g><g id="lwdnin"><g id="right"><path class="cls-23" d="M433,182.27a21.9,21.9,0,0,1,1.3-12.14,21.54,21.54,0,0,1,3.72-5.51c1.89-2.13,3.12-3.47,5.18-3.89a5.39,5.39,0,0,1,6.64,3.89c2.13,5.52,3.2,8.28,3.4,9.23a38.52,38.52,0,0,1,.65,12.47,37.08,37.08,0,0,1-1.94,8.42c-1.15,3.11-1.65,3.06-2.76,6.15s-.71,3.5-2.1,8.91c-1.06,4.12-1.35,4.11-1.78,6.64-.49,2.82-.17,3.06-.65,6.8a27.8,27.8,0,0,1-1.62,7.45c-.82,2.05-1.55,3.81-3.4,5.18a8.29,8.29,0,0,1-4.86,1.62,8.43,8.43,0,0,1-5-1.62C433.44,202.32,433.79,188.06,433,182.27Z"/><path id="shadow-3" data-name="shadow" class="cls-24" d="M447.91,169.4a7,7,0,0,1,1.86,2.43,7.52,7.52,0,0,1,.65,2.83,53.87,53.87,0,0,1,.33,5.83,37.15,37.15,0,0,1-.89,7.85,46.26,46.26,0,0,1-1.79,5.67c-.64,1.78-1.24,3.24-1.7,4.29a23.21,23.21,0,0,1-.72-3c-.34-1.91-.18-2.39-.49-4.21a13.35,13.35,0,0,0-1.21-4.21,10.36,10.36,0,0,0-2.43-3.08,13.4,13.4,0,0,0-.41,3.48c0,2.38.68,3.39,1.62,7.05a35,35,0,0,1,1.13,5.83,26.51,26.51,0,0,1-.08,5.91c-.32,2.48-.57,4.44-1.94,6.47a6.49,6.49,0,0,1-3.72,3.08,5.59,5.59,0,0,1-3.24-.24c.35-.46.84-1.11,1.37-1.95a17.14,17.14,0,0,0,2.59-5.58,13.65,13.65,0,0,0-.51-7.29,15.85,15.85,0,0,0-2.7-5.07,50.47,50.47,0,0,1,12.28-26.1Z"/><path class="cls-25" d="M447.08,169.06c-4.62,4.15-7.25,9.34-9.42,15.06a80.16,80.16,0,0,0-3.29,9.89c-.45,1.88.54,3.08,1.39,4.66a15.58,15.58,0,0,1,1.89,6.09,12.55,12.55,0,0,1-3.22,9.19c-.72.87.52,2.12,1.25,1.25a15,15,0,0,0,3.73-8.1,16.59,16.59,0,0,0-2.23-9.51c-.46-.83-1.26-1.71-1.19-2.71a13.43,13.43,0,0,1,.85-3q.84-2.7,1.8-5.36c.79-2.19,1.59-4.4,2.58-6.51a29.72,29.72,0,0,1,7.11-9.73c.85-.76-.41-2-1.25-1.25Z"/></g><g id="left"><path class="cls-26" d="M241.14,185.05a30.19,30.19,0,0,0-3.08-11.36,20.19,20.19,0,0,0-5.26-6.8c-1.56-1.28-3.81-3.13-7-3.24a9,9,0,0,0-4.37.92,9.36,9.36,0,0,0-3,2.48,10.47,10.47,0,0,0-1.7,3.24,51,51,0,0,0-2.35,7.2,32.57,32.57,0,0,0,.1,12.72,38,38,0,0,0,2.82,8.52c1.59,3.12,2.24,3.05,3.78,6.16.17.34.19.44.36.75.34.66.57,1,.95,1.57.23.37.4.68.73,1.3a24.41,24.41,0,0,1,1.54,3.23l.45,1.34c.32,1,.8,2.43,1,3.12a33.64,33.64,0,0,1,1,4.78c.58,3.58.15,3.64.6,6.54a21.71,21.71,0,0,0,2.37,7.54c1.14,2.05,2.15,3.81,4.58,5.13a12.74,12.74,0,0,0,6.06,1.43H241c1.28-.06,3.35-.75,5.58-4.44C243.83,211.72,241.73,193,241.14,185.05Z"/><path id="shadow-4" data-name="shadow" class="cls-24" d="M221.42,172.62a7.68,7.68,0,0,0-2.3,2.57,6.82,6.82,0,0,0-.73,2.93,43.45,43.45,0,0,0-.19,6,30.5,30.5,0,0,0,1.45,8,41.41,41.41,0,0,0,2.51,5.71c.9,1.78,1.73,3.25,2.35,4.3a19.28,19.28,0,0,0,.82-3.1c.36-2,.14-2.45.47-4.33a10.53,10.53,0,0,1,4.4-7.63,11.34,11.34,0,0,1,.65,3.54c.05,2.44-.74,3.51-1.81,7.29a29.74,29.74,0,0,0-1.23,6,22,22,0,0,0,.34,6.05c.5,2.51.91,4.51,2.74,6.52a8.1,8.1,0,0,0,4.91,3A8.75,8.75,0,0,0,240,219a22.25,22.25,0,0,1-1.85-1.92,16.54,16.54,0,0,1-3.55-5.58,11.37,11.37,0,0,1,.38-7.48,15.53,15.53,0,0,1,3.28-5.32,44.31,44.31,0,0,0-6.36-14.63A52.8,52.8,0,0,0,221.42,172.62Z"/><path class="cls-25" d="M221.18,173.78a30.76,30.76,0,0,1,8.59,8.27,62.46,62.46,0,0,1,3.69,6.4c.81,1.57,1.59,3.17,2.34,4.78.48,1.05.95,2.1,1.4,3.17s1,1.91.22,3c-2.17,3.21-3.95,6.71-3.56,10.71.33,3.55,2.5,6.51,5.11,8.8,1,.85,2.42-.57,1.44-1.43-2.26-2-4.31-4.52-4.55-7.62a12.25,12.25,0,0,1,1.35-6.31c.83-1.68,2.73-3.34,2.68-5.32a7.11,7.11,0,0,0-.79-2.49q-.66-1.59-1.38-3.15-1.14-2.51-2.4-5a61.83,61.83,0,0,0-3.71-6.47,33.27,33.27,0,0,0-9.4-9.14c-1.1-.72-2.11,1-1,1.75Z"/></g></g><g id="lwjh"><path id="lwjh-2" data-name="lwjh" class="cls-27" d="M430.88,196.63c-.29,1.77-.71,4.32-1.24,7.4-.88,5.14-1.32,7.71-1.67,9.44-1,5-2,8.47-3.46,13.6-1.55,5.47-2.14,6.91-2.81,8.26a32,32,0,0,1-4.37,6.75c-1.75,2.06-2.16,2-5.94,5.56a54.52,54.52,0,0,0-5.77,6,36.26,36.26,0,0,0-4.7,8.16c-2.11,4.68-1.8,5.67-3.94,11.76a69.51,69.51,0,0,1-5.4,12.42,64.35,64.35,0,0,1-6.91,9.66,33,33,0,0,1-7.28,7,13.66,13.66,0,0,1-5,2.27,14.28,14.28,0,0,1-5.13.05c-2.22-.39-2.41-1-3.83-1-2,0-3.07,1.11-5,2.32a25.77,25.77,0,0,1-8.1,3.24,28,28,0,0,1-9.38.65,25,25,0,0,1-7.35-1.73c-1.42-.59-2.28-1.13-6.69-3.13a8,8,0,0,0-4.21-1.08c-1.35.1-1.82.6-3.35,1.19a16.65,16.65,0,0,1-6.47.86,14.69,14.69,0,0,1-6.27-2.27,42.71,42.71,0,0,1-9.82-7.77,60,60,0,0,1-9.61-13.17c-1.18-2.24-2.58-6.17-5.4-14-3.18-8.88-4-11.88-7.12-15.65a48,48,0,0,0-5.4-5.29c-3.36-2.81-5-3.4-7.45-5.29a31.64,31.64,0,0,1-7.67-9.07c-2.51-4.05-3.76-8.82-6.26-18.36-1.38-5.29-.48-2.8-3.13-14.57a31.74,31.74,0,0,1-1-6.8,29.26,29.26,0,0,1,1.08-8.42c0-.18.89-6.92,2.59-20.41,2.29-18.19,2.2-18,2.59-19.75,2.14-9.6,3.22-14.4,5.29-17.82a17.81,17.81,0,0,0,2.7-7,21.75,21.75,0,0,0,0-5.29c-.32-3.69-.93-5-1.4-7.77a36.61,36.61,0,0,1,.1-11.77,28.29,28.29,0,0,1,2.27-8.74,23.39,23.39,0,0,1,2.59-4.32,22.25,22.25,0,0,1,4.65-4.43c4.67-3.37,11.2-5.87,15.86-7.55,8-2.89,12.12-4.35,17.82-5.51a52.87,52.87,0,0,1,11.12-1.4c4.94,0,5.2.78,12.52,1.29,6.13.43,9.49.64,13.82-.43,3.22-.79,3.4-1.42,7.13-2.27a43.73,43.73,0,0,1,10.36-1c4.84.11,8.33,1,15.12,2.7a177.06,177.06,0,0,1,18.78,5.94,87.08,87.08,0,0,1,12.31,5.61,22.81,22.81,0,0,1,5.4,3.78c2.49,2.45,3.62,4.9,5,7.88a50.63,50.63,0,0,1,4.11,15.33,53.94,53.94,0,0,1,.21,8.53c.46,1.36,1.17,3.4,2.16,5.83,1.41,3.46,2.35,5.19,3.46,7.67a96.29,96.29,0,0,1,3.56,9.82c3,9.94,3.25,19.35,3.34,25.48.12,7.06-.48,8.64.33,14s1.42,6.23,1.94,10.58a61,61,0,0,1,.38,6.42C431,193.2,431,195.08,430.88,196.63Z"/><path id="shadow-5" data-name="shadow" class="cls-28" d="M390.11,70.58c-5.08-1.71-9.39-2.87-12.67-3.67-4.12-1-6.63-1.41-7.84-1.6-1.94-.31-4.06-.56-6.73-.77-6.18-.49-9.27-.74-13.28.11-2.71.57-2.69.94-9.72,2.91a60.45,60.45,0,0,1-8.53,2c-2,.25-3.64.26-10-.1-6.7-.39-7.91-.58-9.82-.65-6.69-.26-11.73,1.28-17.82,3.13a77.25,77.25,0,0,0-18.35,8.53c-4.78,3-7,5.16-8.12,8.09-.46,1.14-.65,2.14-.73,7.78-.09,6.39-.14,9.66.24,15.3.54,8.14,1.08,8.12.73,10.93-.68,5.37-3,8.17-5.1,12.15-3.64,6.87-4.32,14.49-5.7,29.74-.35,3.86-.48,8.33-.75,17.28-.46,15-.67,22.72.21,30.55a79.7,79.7,0,0,0,4.11,19.43,72.85,72.85,0,0,0,7.23,14.74l-.34-.12c-2-1.44-3.38-2.13-5.22-3.55a31.64,31.64,0,0,1-7.67-9.07c-2.51-4.05-3.76-8.82-6.26-18.36-1.38-5.29-.48-2.8-3.13-14.57a31.74,31.74,0,0,1-1-6.8,29.26,29.26,0,0,1,1.08-8.42c0-.18.89-6.92,2.59-20.41,2.29-18.19,2.2-18,2.59-19.75,2.14-9.6,3.22-14.4,5.29-17.82a17.81,17.81,0,0,0,2.7-7,21.75,21.75,0,0,0,0-5.29c-.32-3.69-.93-5-1.4-7.77a36.61,36.61,0,0,1,.1-11.77,28.29,28.29,0,0,1,2.27-8.74,23.39,23.39,0,0,1,2.59-4.32,22.25,22.25,0,0,1,4.65-4.43c4.67-3.37,11.2-5.87,15.86-7.55,8-2.89,12.12-4.35,17.82-5.51a52.87,52.87,0,0,1,11.12-1.4c4.94,0,5.2.78,12.52,1.29,6.13.43,9.49.64,13.82-.43,3.22-.79,3.4-1.42,7.13-2.27a43.73,43.73,0,0,1,10.36-1c4.84.11,8.33,1,15.12,2.7a174.89,174.89,0,0,1,17.78,5.57l1.12.41Z"/></g><g id="nif"><path id="nif-2" data-name="nif" class="cls-29" d="M364.31,199.49a.18.18,0,0,1,.32-.15,12.19,12.19,0,0,1,2.45,5c.33,1.45.87,3.83-.33,5.72-.8,1.27-1.86,1.48-4.75,2.7a73.57,73.57,0,0,0-8,4c-3.83,2.28-4,3.21-6.8,4.21a17.36,17.36,0,0,1-5.61,1,18.78,18.78,0,0,1-7.56-1.62c-3-1.28-2.62-2-5.83-3.34-2-.86-2.38-.65-5.51-1.84-2.48-1-3.75-1.44-4.85-2.37a8.18,8.18,0,0,1-3-4.75,8,8,0,0,1,.76-4.75,10.79,10.79,0,0,1,3.47-4.38.33.33,0,0,1,.53.27,38,38,0,0,1-.33,5.29,3.34,3.34,0,0,0,.11,2.16c.45.88,1.46,1.39,4,1.84,3.6.64,3.87,0,6.16.54,1.9.43,1.62.84,5.93,2.59A16.56,16.56,0,0,0,340.3,213a12.23,12.23,0,0,0,5.08-.86c1.72-.61,1.82-1,5.61-2.92a18.39,18.39,0,0,1,4.1-1.83c1.12-.22,1.48-.07,5-.11,3,0,3.34-.15,3.67-.43,1-.89,1-2.64.86-4.86A19.25,19.25,0,0,0,364.31,199.49Z"/><g id="nif-3" data-name="nif"><path class="cls-25" d="M323.08,213.84a11.9,11.9,0,0,1,5.56.5,11.47,11.47,0,0,1,3.77,2.69,14,14,0,0,0,9.1,3.69,11,11,0,0,0,9-3.8,13.74,13.74,0,0,1,3.71-3.46,12.84,12.84,0,0,1,5.28-1.5c1.12-.1,1.14-1.86,0-1.77a13.36,13.36,0,0,0-9,3.95c-1.23,1.34-2.13,2.81-3.78,3.69a10.71,10.71,0,0,1-5.25,1.13,12.66,12.66,0,0,1-5.12-1.29,18.2,18.2,0,0,1-4-3.09,11.71,11.71,0,0,0-9.31-2.5c-1.11.12-1.13,1.89,0,1.76Z"/></g><path class="cls-30" d="M348.4,166.84a.23.23,0,0,1,.45-.05c.21,1,.49,2.22.85,3.51.42,1.48.76,2.48,2.48,7,1.6,4.21,2.56,8.64,3.88,12.95.2.64.66,2.12,0,2.7a1.53,1.53,0,0,1-1.51.11c-1.21-.48-1.6-2.1-1.78-2.81-.68-2.75-1.74-5.41-2.21-8.2-1.24-7.26-1.47-6.51-1.84-10C348.52,170.06,348.43,168.32,348.4,166.84Z"/></g><g id="Ch3ar_wl7ya" data-name="Ch3ar wl7ya"><path id="ch3ar" class="cls-31" d="M440,108.69a60,60,0,0,0-1.62-13.39c-2.16-8.53-5.41-12.12-6.8-13.49a21.63,21.63,0,0,0-3.67-2.92,26.14,26.14,0,0,0,2.81-12.2,34.33,34.33,0,0,0-2.59-11.34,48.33,48.33,0,0,0-2.06-4.75,45.38,45.38,0,0,1-2.26,19.22,33.29,33.29,0,0,0-1.19-9.39,34.59,34.59,0,0,0-3.56-8.31c-1.72-3-2.25-3.06-4.76-6.7a55.77,55.77,0,0,1-7-13c-1.51-4.19-.87-4.46-2.37-7.56a19.66,19.66,0,0,0-6.59-8.32c-.91-.61-4.85-3.28-9.61-3.12a16.63,16.63,0,0,1-4.21-.11,16.18,16.18,0,0,1-4.64-1.73,31.28,31.28,0,0,1-5.19-3.35c-4.32-3.51-14-6.41-21.37-7.55a63.17,63.17,0,0,0-20.95.32c-6.06,1-13.59,3.2-16.73,4.1-5.32,1.53-7.09,2.26-11,2.81-4.54.64-6,.19-12,.54A76.2,76.2,0,0,0,280,10c-4.72,1-10.85,2.44-16.84,7a33.32,33.32,0,0,0-5.83,5.72A30,30,0,0,0,251,24.26c-2.2.78-8,2.86-12,8-1,1.31-2.33,4.91-5,12.09-2.24,6.12-2.49,7.35-4,10a43.78,43.78,0,0,1-5.83,7.88c-5.2,6-6.74,5.71-9.5,9.94A23,23,0,0,0,210.83,82a22.18,22.18,0,0,0,2,12.42,21.63,21.63,0,0,1,2.48-11.66,21.39,21.39,0,0,1,6.81-7.56,44.38,44.38,0,0,0-5.73,23.86,32.56,32.56,0,0,0,3.78,14.25,30.93,30.93,0,0,0,4.64,6.37,32.8,32.8,0,0,1-.86-14.47c.8,4.22,2,10.91,3,19.22,1.36,10.8,1.1,13.24,2.6,22.35,1.64,10,2.47,15.07,5,20.73,2.09,4.73,3.79,6.76,5.29,12.09a45.13,45.13,0,0,1,1.62,13.06c0,7.28,1.35,20,4,45.45.36,3.41,1.27,9.78,3.08,22.51,1.26,8.89,1.84,12.55,3.88,17.33.69,1.6,2.87,6.43,8.91,13.6.59.71,1.16,1.35,1.71,2l.38.41c3.4,3.67,6.79,6.33,16.37,14.47,11.15,9.46,14.38,12.49,23.16,19.43,9.74,7.7,11.94,8.85,13.92,9.72,8.26,3.59,15.56,3.5,23,3.4s15.44-.21,24.78-4.22c7.49-3.21,12.18-7.39,18.95-13.44s5.63-6.41,15.7-16.35c6-6,8.86-8.2,11.53-10.95.06-.06.13-.12.18-.18l.71-.75,0,0c.17-.17.33-.35.5-.54l.3-.34c.67-.76,1.37-1.61,2.15-2.6,3.1-3.94,6.39-8.21,8.9-14.57,2-5,2.55-9.74,3.73-19.27.87-7.08.6-8.07,1.78-18.63.72-6.39.8-5.84,1.46-11.87.84-7.71,1.27-13.71,1.62-18.68.49-6.94.73-10.41.76-13,.06-6.59-.43-9.26-.11-17.06.2-5.22.55-7.4,1.29-9.72,1.14-3.55,2.22-4.4,3.24-7.56,1.35-4.17.93-7.3.76-11-.08-1.53.06.45,1.08-18.13C440.17,115.75,440.17,112.29,440,108.69Zm-9.15,87.94c-.29,1.77-.71,4.32-1.24,7.4-.88,5.14-1.32,7.71-1.67,9.44-1,5-2,8.47-3.46,13.6-1.55,5.47-2.14,6.91-2.81,8.26a32,32,0,0,1-4.37,6.75c-1.75,2.06-2.16,2-5.94,5.56a54.52,54.52,0,0,0-5.77,6,36.26,36.26,0,0,0-4.7,8.16c-2.11,4.68-1.8,5.67-3.94,11.76a69.51,69.51,0,0,1-5.4,12.42c-1.9,3.33-11.9,15.14-14.19,16.68a13.66,13.66,0,0,1-5,2.27,14.28,14.28,0,0,1-5.13.05c-2.22-.39-2.41-1-3.83-1-2,0-3.07,1.11-5,2.32a25.77,25.77,0,0,1-8.1,3.24,28,28,0,0,1-9.38.65,25,25,0,0,1-7.35-1.73c-1.42-.59-2.28-1.13-6.69-3.13a8,8,0,0,0-4.21-1.08c-1.35.1-1.82.6-3.35,1.19a16.65,16.65,0,0,1-6.47.86,14.61,14.61,0,0,1-6.27-2.27c-3.76-2.19-6.38-4.78-9.53-8.33-5.14-5.79-7.7-8.68-9.9-12.61-1.07-1.91-2.51-6-5.4-14-3.18-8.88-4-11.88-7.12-15.65a48,48,0,0,0-5.4-5.29c-.84-.7-1.57-1.26-2.23-1.74-2-1.44-3.38-2.13-5.22-3.55a31.64,31.64,0,0,1-7.67-9.07c-2.51-4.05-3.76-8.82-6.26-18.36-1.38-5.29-.48-2.8-3.13-14.57a31.74,31.74,0,0,1-1-6.8,29.26,29.26,0,0,1,1.08-8.42c0-.18.89-6.92,2.59-20.41,2.29-18.19,2.2-18,2.59-19.75,2.14-9.6,3.22-14.4,5.29-17.82a17.81,17.81,0,0,0,2.7-7,21.75,21.75,0,0,0,0-5.29c-.32-3.69-.93-5-1.4-7.77a36.61,36.61,0,0,1,.1-11.77,28.29,28.29,0,0,1,2.27-8.74,23.39,23.39,0,0,1,2.59-4.32,22.25,22.25,0,0,1,4.65-4.43c4.67-3.37,11.2-5.87,15.86-7.55,8-2.89,12.12-4.35,17.82-5.51a52.87,52.87,0,0,1,11.12-1.4c4.94,0,5.2.78,12.52,1.29,6.13.43,9.49.64,13.82-.43,3.22-.79,3.4-1.42,7.13-2.27a43.73,43.73,0,0,1,10.36-1c4.84.11,8.33,1,15.12,2.7a174.89,174.89,0,0,1,17.78,5.57l1,.37a87.08,87.08,0,0,1,12.31,5.61,22.81,22.81,0,0,1,5.4,3.78c2.49,2.45,3.62,4.9,5,7.88a50.63,50.63,0,0,1,4.11,15.33,53.94,53.94,0,0,1,.21,8.53c.46,1.36,1.17,3.4,2.16,5.83,1.41,3.46,2.35,5.19,3.46,7.67a96.29,96.29,0,0,1,3.56,9.82c3,9.94,3.25,19.35,3.34,25.48.12,7.06-.48,8.64.33,14s1.42,6.23,1.94,10.58a61,61,0,0,1,.38,6.42C431,193.2,431,195.08,430.88,196.63Z"/><path id="lgadoma" class="cls-32" d="M343.61,276.44c2-.19,4.24-.47,6.56-.89,2.62-.47,5-1.05,7.24-1.66a.35.35,0,0,1,.42.47,18.75,18.75,0,0,1-1.75,3.17,31.3,31.3,0,0,1-4,4.34c-3.21,3.16-3.94,3.62-4.74,4a8.75,8.75,0,0,1-3.68,1,9.89,9.89,0,0,1-4.58-1.13,30,30,0,0,1-3.92-2.47c-1.78-1.21-2.67-1.82-3.61-2.59a16.66,16.66,0,0,1-3.36-3.4,12.62,12.62,0,0,1-1.17-2.07.41.41,0,0,1,.46-.57c1.58.37,3.28.72,5.09,1,2.09.35,4.07.58,5.91.73Z"/><g id="lmostach"><path class="cls-32" d="M351.48,222.11c-1.74.15-3.88.34-5.51,2a6.82,6.82,0,0,0-1.73,5,6,6,0,0,0,2.16,4.42,5.79,5.79,0,0,0,3.24.87,46.31,46.31,0,0,0,7.23.21c.62-.06,6.11.32,17.06,1.08,0,0,.6,0,10.69,1.08,4.13.43,6.8.74,8.53,2.81a8.67,8.67,0,0,1,1.56,3.67,23.76,23.76,0,0,1,.84,6.95.39.39,0,0,0,.73.2A27.6,27.6,0,0,0,398,247a19.8,19.8,0,0,0,1.3-4,13.32,13.32,0,0,0-.16-6.91,9.91,9.91,0,0,0-2.27-4c-2.07-2.11-4.72-2.45-7.5-2.86-4.74-.7-9.43-1.76-14.15-2.59-6.1-1.07-9.16-1.61-11.22-2.21-.05,0-3.45-1-8-1.89A14.62,14.62,0,0,0,351.48,222.11Z"/><path class="cls-32" d="M332.91,222a8.49,8.49,0,0,1,5.45,3.13,7.2,7.2,0,0,1,1.46,3.94,5.49,5.49,0,0,1-1,3.83,5.23,5.23,0,0,1-2.37,1.57,11,11,0,0,1-3.24.43c-1.53.1-2.3.15-2.86.16-2.43.07-5,.43-8.37.87l-13.23,1.62c-3.76.45-7.47,1.18-11.22,1.67-2.55.34-5.09.64-7.24,2.59a7.8,7.8,0,0,0-2.32,3.29,17.5,17.5,0,0,0-.84,7,.39.39,0,0,1-.72.2,27.52,27.52,0,0,1-1.68-3.43,19.91,19.91,0,0,1-1.3-4.05,13.43,13.43,0,0,1,.16-6.91,10.08,10.08,0,0,1,2.27-4c2.07-2.12,4.72-2.45,7.5-2.86,0,0,5.55-.83,14.15-2.6,5.65-1.16,10.69-2.62,11.12-2.75,2.23-.65,4.48-1.24,6.7-1.94C329.87,222.28,330.92,221.71,332.91,222Z"/></g><g id="l7jban"><path class="cls-33" d="M362.43,140.33a7.57,7.57,0,0,1-3.72-1.46,6.07,6.07,0,0,1-2.59-4.37,6,6,0,0,1,1.78-4.05c1.32-1.55,3-2.45,6.32-3.56a52.16,52.16,0,0,1,8.42-2.11,51.28,51.28,0,0,1,16.84-1c4.36.48,10.87,1.26,17.81,5.51a37.33,37.33,0,0,1,11,10.36,39.87,39.87,0,0,1-7-.32c-5.17-.7-7.3-2-11.66-3.08-4.69-1.14-8.29-1.07-13.12-1-7.66.15-11.48.22-15.06,1.94C368.53,138.68,366.06,140.76,362.43,140.33Z"/><path class="cls-33" d="M318.76,140.92a6.75,6.75,0,0,0,3.73-1.46,6.27,6.27,0,0,0,2.21-4.58,6.35,6.35,0,0,0-1.4-3.84c-.52-.68-1.77-2.12-6.32-3.56a35.2,35.2,0,0,0-8.47-1.56,60.77,60.77,0,0,0-14.68-.87c-5,.32-12.15.76-19.93,4.86a41.57,41.57,0,0,0-15,13.71c2.52-.77,6.12-1.86,10.47-3.13,9.57-2.8,11.34-3.15,12.41-3.35a66.45,66.45,0,0,1,14-1c7.26.18,10.89.26,13.92,1.68S315.09,141.3,318.76,140.92Z"/></g></g></g></g><g id="ndadr"><g id="ndadr-2" data-name="ndadr"><path id="lcadr" class="cls-32" d="M429,160.49q-1-9.39-1.94-18.78c-1.37-.47-2.77-.93-4.21-1.38l-1.3-.4h0L418,138.87l-.38-.14c-2.18-.86-4.3-1.57-6.34-2.15h0a72,72,0,0,0-16.91-2.78c-1.53-.07-3.36-.14-5.42-.12a53.9,53.9,0,0,0-26.32,6.49,49.34,49.34,0,0,0-9,6.37,30.14,30.14,0,0,0-24.62,0c-1.12-.88-2.22-1.67-3.29-2.38-1.77-1.19-3.44-2.17-5-3-1.72-.92-3.27-1.63-4.58-2.18-.74-.31-1.49-.61-2.24-.89h0a58.33,58.33,0,0,0-20.58-3.59,71,71,0,0,0-21.87,3.61,68.75,68.75,0,0,0-11.56,5,27.35,27.35,0,0,0-10.77,3.08q-.43,4.91-.89,9.79a8.6,8.6,0,0,1,5.59,3c.29.37,1.07,1.44,1.87,5.35a51.41,51.41,0,0,1,.8,6.39,32.51,32.51,0,0,0,2.84,9.64A54.7,54.7,0,0,0,262,186a30,30,0,0,0,5.81,7.61,28.92,28.92,0,0,0,5.94,4.27h0a32.42,32.42,0,0,0,4.08,1.84,45.35,45.35,0,0,0,5.43,1.57c.84.2,1.67.36,2.47.49h0a37.39,37.39,0,0,0,4.6.47,42.86,42.86,0,0,0,9.77-.8,37.68,37.68,0,0,0,16.11-6.32,38.81,38.81,0,0,0,9.8-10.52,48.85,48.85,0,0,0,7-15.14,25.43,25.43,0,0,0,1.05-9.15,14.07,14.07,0,0,0-1.45-5.35,13.77,13.77,0,0,0-1.3-2,15.25,15.25,0,0,1,2.59-1.7,16.42,16.42,0,0,1,8.34-1.7,15.45,15.45,0,0,1,6.8,1.62,14.67,14.67,0,0,1,2.59,1.7,15,15,0,0,0-2.42,5.18,15.55,15.55,0,0,0-.17,6.32,41.37,41.37,0,0,0,4.54,13c1.63,3.07,2.91,5.48,4.17,7.51a28.15,28.15,0,0,0,5.38,6.59h0l.17.15a32.63,32.63,0,0,0,10,6h0l.75.28c1.94.71,3.67,1.17,5.07,1.55.88.24,2,.53,3.29.8a39.41,39.41,0,0,0,4.15.66h0a38.15,38.15,0,0,0,11.11-.41c3.36-.62,12.63-2.48,19.92-10.36A36.25,36.25,0,0,0,424.7,178a37.67,37.67,0,0,0,2.59-12.06,34.19,34.19,0,0,0-.32-5.75Zm-102.77,16c-1.45,3.74-4.24,10.66-11.37,15.91A33.65,33.65,0,0,1,300,198.29a45.56,45.56,0,0,1-7.77.87,33.5,33.5,0,0,1-6.48-.53,32.05,32.05,0,0,1-5.41-1.51l-.74-.28a29.56,29.56,0,0,1-11.48-7.93,27.12,27.12,0,0,1-4.11-6.22,50.19,50.19,0,0,1-2.5-6.59,38.36,38.36,0,0,1-2.13-13.26c.09-4,.18-7.87,2.67-11.82a19.63,19.63,0,0,1,6.66-6.14c5.4-3.46,10.43-4.43,14.69-5.2a57.75,57.75,0,0,1,7.34-.87,64.78,64.78,0,0,1,13,.69,51.61,51.61,0,0,1,9.48,2.16,28.75,28.75,0,0,1,4.13,1.74l1.55.83a18,18,0,0,1,4.66,3.51,3.57,3.57,0,0,1,.27.28c4.07,4.51,4.63,9.93,4.94,12.87A32.36,32.36,0,0,1,326.22,176.51Zm96.29-3.74c-1.25,4.36-2.37,8.25-5.5,12.53A31.32,31.32,0,0,1,405.13,195a32.35,32.35,0,0,1-16.71,2.76c-1-.08-2-.18-2.83-.28-1-.11-2.21-.25-3.51-.47a33.21,33.21,0,0,1-6.48-1.74,30.21,30.21,0,0,1-5.23-2.64,31.48,31.48,0,0,1-10.48-11.32c-.82-1.45-1.44-2.76-1.93-3.8a32.67,32.67,0,0,1-3.78-16.63c.17-3,.52-8.67,4.64-13.06a18.89,18.89,0,0,1,5.18-3.67,48.88,48.88,0,0,1,13.93-5.07,67.37,67.37,0,0,1,8.47-1.27,60.47,60.47,0,0,1,11.82.08c4.26.49,7.67.88,11,2.17a23.19,23.19,0,0,1,4,2c.4.25,1,.62,1.63,1.11a24.42,24.42,0,0,1,4.33,4.07,21.54,21.54,0,0,1,3.11,5,22.72,22.72,0,0,1,1.83,6.91C424.82,164.6,423.65,168.82,422.51,172.77Z"/><path class="cls-34" d="M422.51,172.77c-1.25,4.36-2.37,8.25-5.5,12.53A31.32,31.32,0,0,1,405.13,195c-7.95,3.73-15.19,3-19.54,2.48a33.57,33.57,0,0,1-15.22-4.85c-7.51-4.79-10.71-11.54-12.41-15.12a32.67,32.67,0,0,1-3.78-16.63c.17-3,.52-8.67,4.64-13.06a18.89,18.89,0,0,1,5.18-3.67,48.88,48.88,0,0,1,13.93-5.07,64.35,64.35,0,0,1,20.29-1.19c5.94.68,10.25,1.17,15,4.21a23.59,23.59,0,0,1,9.07,10.15,22.72,22.72,0,0,1,1.83,6.91C424.82,164.6,423.65,168.82,422.51,172.77Z"/><path class="cls-34" d="M326.22,176.51c-1.45,3.74-4.24,10.66-11.37,15.91A33.65,33.65,0,0,1,300,198.29c-4,.73-11.3,2-19.66-1.17a29.83,29.83,0,0,1-12.22-8.21c-3.91-4.44-5.35-8.9-6.61-12.81a38.36,38.36,0,0,1-2.13-13.26c.09-4,.18-7.87,2.67-11.82a19.63,19.63,0,0,1,6.66-6.14c5.4-3.46,10.43-4.43,14.69-5.2a61.21,61.21,0,0,1,20.34-.18c8,1.13,12.18,3.16,13.61,3.9a21.06,21.06,0,0,1,6.48,4.62c4.07,4.51,4.63,9.93,4.94,12.87A32.36,32.36,0,0,1,326.22,176.51Z"/><g id="shadow_zaj" data-name="shadow zaj"><path class="cls-35" d="M313.2,141.66l-33.62,55.18a29.56,29.56,0,0,1-11.48-7.93,27.12,27.12,0,0,1-4.11-6.22l26.73-43.88a64.78,64.78,0,0,1,13,.69A51.61,51.61,0,0,1,313.2,141.66Z"/><path class="cls-35" d="M409.24,140.07,375.6,195.28a30.21,30.21,0,0,1-5.23-2.64,31.48,31.48,0,0,1-10.48-11.32l26.51-43.5a60.47,60.47,0,0,1,11.82.08C402.48,138.39,405.89,138.78,409.24,140.07Z"/><path class="cls-35" d="M419.19,147.29l-30.77,50.48c-1-.08-2-.18-2.83-.28-1-.11-2.21-.25-3.51-.47l32.78-53.8A24.42,24.42,0,0,1,419.19,147.29Z"/><path class="cls-35" d="M323.54,147.74l-31.33,51.42a33.5,33.5,0,0,1-6.48-.53l33.15-54.4A18,18,0,0,1,323.54,147.74Z"/></g></g></g><g id="l3inin"><g id="l3inin-2" data-name="l3inin"><g id="right-2" data-name="right"><path class="cls-25" d="M365.15,164.53a28.7,28.7,0,0,1,13.23-7,28.09,28.09,0,0,1,18.85,2.86,31,31,0,0,1,7.61,5.65,1.33,1.33,0,0,0,1.88-1.87,33.73,33.73,0,0,0-15.65-8.94A29.4,29.4,0,0,0,369.68,158a32.76,32.76,0,0,0-6.4,4.64c-1.26,1.16.62,3,1.87,1.87Z"/><circle class="cls-36" cx="384.3" cy="162.89" r="8.37"/></g><g id="left-2" data-name="left"><path class="cls-25" d="M275.07,165.49a28.77,28.77,0,0,1,12.29-8,28.2,28.2,0,0,1,19.28,1.19,30.37,30.37,0,0,1,8.11,5c1.29,1.11,3.17-.75,1.87-1.87-10.4-9-25.81-11.08-37.52-3.3a33.35,33.35,0,0,0-5.91,5c-1.15,1.25.72,3.13,1.88,1.87Z"/><circle class="cls-36" cx="294.1" cy="162.3" r="8.37"/></g></g></g><g id="lfm"><g id="lfm-2" data-name="lfm"><path class="cls-37" d="M343.49,238.73c3.87.18,5-1.37,9.61-2a35.72,35.72,0,0,1,7.88.11c3.66.27,4.19.56,12.2,1.73,6.37.93,9.42,1.24,11.12,1.4s3.15.27,4.35.35a.79.79,0,0,1,.63,1.19,66.72,66.72,0,0,1-3.69,5.7,68,68,0,0,1-10.25,11.33,46.46,46.46,0,0,1-11,7.77c-5.91,2.86-10.95,3.42-16.19,4-5,.56-10.76,1.21-18.14-.43A45.69,45.69,0,0,1,316,264.21c-2.76-1.7-5-3.65-9.48-7.55-6.91-6-5.1-4.53-8-7.67-1.89-2-3.38-3.88-4.48-5.29a.53.53,0,0,1,.3-.84c1.85-.44,4.52-1,7.74-1.64,6.92-1.29,7.81-1,15.33-2.27,6.33-1.08,7.76-1.65,12-1.83a40.73,40.73,0,0,1,7.88.32C341.11,238,341.07,238.63,343.49,238.73Z"/><path id="lfm-3" data-name="lfm" class="cls-32" d="M293.9,243.65a.48.48,0,0,1,.3-.85l47.67-1.26,46.7-1.25a.76.76,0,0,1,.58,1.26,50.46,50.46,0,0,1-6,5.66c-8.32,6.68-16.68,9-22.67,10.69a77.68,77.68,0,0,1-17.81,2.75,73,73,0,0,1-29.8-5.34A71.16,71.16,0,0,1,293.9,243.65Z"/><path id="snan" class="cls-38" d="M306.44,245a.21.21,0,0,1,.19-.26q17.73-.84,36.1-1.36,17.46-.49,34.38-.64a.47.47,0,0,1,.46.63c-1.49,4.34-2.29,6.65-2.29,6.65l0,0a68.1,68.1,0,0,1-11,4.92,72.8,72.8,0,0,1-20.81,3.64A78.8,78.8,0,0,1,321,255.93a80.76,80.76,0,0,1-12.41-4.41,1.42,1.42,0,0,1-.79-1Z"/><g id="shadow-6" data-name="shadow"><path id="right-3" data-name="right" class="cls-39" d="M391.38,219.05c-.25-.29.27-.81.63-1,.76-.36,1.85.49,3.38,1.77a58.41,58.41,0,0,1,4.45,3.89c2.06,2.29,4.14,4.62,5.1,8.34.57,2.2.38,4.19,0,8.18-.24,2.54-.61,4-1.53,4.33a1.17,1.17,0,0,1-1-.14c-.71-.55-.29-2.1,0-3.38a22,22,0,0,0,.33-5.91,16.19,16.19,0,0,0-3.16-7.21c-1.36-1.94-2.11-2.31-5.18-5.59C393.17,221.11,392.18,220,391.38,219.05Z"/><path id="left-3" data-name="left" class="cls-39" d="M291.23,223.58c.25-.29-.27-.8-.64-1-.75-.36-1.84.5-3.37,1.78a56.92,56.92,0,0,0-4.45,3.88c-2.06,2.3-4.14,4.62-5.11,8.34-.56,2.2-.37,4.2,0,8.18.25,2.55.62,4,1.54,4.33a1.12,1.12,0,0,0,1-.14c.71-.54.3-2.09.06-3.38a22,22,0,0,1-.33-5.91,16.3,16.3,0,0,1,3.16-7.21c1.36-1.94,2.11-2.3,5.18-5.58C289.44,225.64,290.43,224.51,291.23,223.58Z"/></g></g></g></g></g></svg>